<?xml version="1.0" standalone="no"?>
<!DOCTYPE svg PUBLIC "-//W3C//DTD SVG 20010904//EN"
 "http://www.w3.org/TR/2001/REC-SVG-20010904/DTD/svg10.dtd">
<svg version="1.0" xmlns="http://www.w3.org/2000/svg"
 width="1280.000000pt" height="1280.000000pt" viewBox="0 0 1280.000000 1280.000000"
 preserveAspectRatio="xMidYMid meet">
<metadata>
Created by potrace 1.11, written by Peter Selinger 2001-2013
</metadata>
<g transform="translate(0.000000,1280.000000) scale(0.100000,-0.100000)"
fill="#000000" stroke="none">
<path d="M6300 11978 c0 -2 -33 -151 -73 -333 l-73 -330 -41 -3 -40 -3 -113
313 c-62 172 -117 317 -121 322 -8 9 -219 -11 -236 -23 -5 -3 -22 -157 -37
-341 -16 -184 -29 -337 -31 -338 -2 -2 -19 -7 -39 -12 -43 -9 -28 -33 -216
333 -73 143 -138 261 -144 263 -10 4 -223 -49 -231 -58 -2 -1 3 -127 11 -278
7 -151 13 -305 14 -341 l0 -66 -37 -11 c-20 -6 -38 -10 -39 -9 -1 1 -86 124
-189 272 -103 149 -191 274 -196 279 -7 8 -204 -66 -223 -84 -6 -7 92 -600
110 -661 3 -11 -7 -20 -36 -32 l-40 -15 -227 249 c-125 137 -230 249 -234 249
-5 0 -184 -100 -207 -116 -2 -1 42 -144 97 -318 56 -174 101 -322 101 -330 0
-7 -15 -21 -34 -31 l-33 -18 -257 216 c-141 120 -259 217 -262 217 -6 0 -194
-141 -194 -145 0 -2 65 -140 144 -308 l143 -306 -26 -25 c-15 -14 -31 -26 -36
-26 -5 0 -137 82 -293 181 l-284 182 -84 -84 c-46 -46 -84 -87 -84 -90 0 -4
81 -134 181 -289 l180 -282 -26 -34 c-31 -40 15 -56 -369 125 -153 72 -280
130 -281 129 -1 -2 -30 -41 -66 -88 -36 -47 -68 -90 -72 -96 -3 -6 89 -125
212 -270 l218 -259 -21 -32 c-12 -18 -25 -33 -30 -33 -5 0 -144 43 -310 95
-165 53 -308 98 -317 101 -12 3 -32 -23 -78 -102 -35 -58 -61 -107 -59 -108 2
-2 446 -404 486 -441 18 -17 -14 -85 -40 -85 -11 0 -159 25 -329 56 -171 30
-315 54 -320 52 -10 -3 -103 -218 -97 -223 2 -2 125 -87 273 -190 149 -104
272 -190 274 -192 2 -1 -1 -21 -8 -43 l-12 -40 -57 0 c-31 1 -183 7 -337 15
-154 7 -281 12 -283 10 -8 -8 -62 -220 -59 -229 3 -7 137 -81 300 -164 l295
-153 -10 -42 c-5 -23 -10 -42 -11 -42 -1 -1 -150 -14 -332 -29 -181 -15 -333
-30 -337 -34 -5 -6 -38 -235 -34 -238 0 -1 143 -52 316 -115 313 -114 315
-115 318 -144 2 -17 -3 -37 -10 -47 -9 -11 -110 -37 -333 -85 l-320 -70 0
-124 0 -123 35 -8 c19 -4 166 -36 325 -71 l290 -64 9 -42 c5 -23 7 -43 5 -45
-2 -1 -139 -51 -304 -110 -170 -61 -307 -115 -316 -126 -14 -17 -15 -29 -1
-127 8 -59 15 -109 16 -110 1 -1 149 -14 329 -29 180 -16 332 -31 337 -34 5
-3 12 -23 15 -45 l6 -40 -291 -150 -290 -150 0 -40 c1 -22 7 -57 14 -78 17
-45 62 -113 81 -121 21 -8 602 22 622 32 10 5 30 12 44 15 23 6 27 3 39 -34
13 -38 12 -47 -9 -108 -113 -321 -270 -662 -383 -831 -89 -135 -214 -258 -303
-300 -169 -80 -335 -38 -434 111 -95 143 -111 343 -39 499 17 36 22 41 26 25
30 -137 157 -152 287 -33 77 70 119 159 119 253 1 151 -90 210 -238 154 -166
-62 -289 -209 -348 -416 -33 -114 -32 -308 0 -413 30 -96 62 -151 129 -221
106 -111 252 -155 419 -127 119 21 186 48 267 109 179 135 383 463 553 889 31
80 60 149 64 153 4 4 16 -15 27 -44 l19 -51 -28 -28 c-15 -16 -28 -38 -28 -49
0 -12 20 -65 45 -118 25 -53 45 -97 45 -98 0 -2 -112 -105 -250 -231 l-250
-227 19 -31 c10 -17 37 -64 60 -104 23 -39 47 -72 52 -72 6 0 152 45 326 101
173 55 316 99 317 97 1 -2 12 -17 24 -35 l22 -31 -220 -262 -220 -261 71 -92
c39 -51 75 -93 79 -95 5 -2 144 61 311 138 l302 142 30 -30 30 -30 -178 -277
c-98 -153 -179 -285 -182 -294 -2 -10 27 -46 79 -98 l83 -82 289 185 289 185
28 -27 c16 -15 29 -31 29 -35 0 -4 -63 -142 -140 -305 -77 -164 -140 -300
-140 -304 0 -4 43 -40 95 -80 l95 -72 43 35 c23 19 141 118 262 220 l220 185
30 -21 c16 -11 31 -22 33 -23 2 -1 -42 -145 -97 -320 -56 -175 -101 -323 -101
-329 0 -14 198 -127 210 -120 5 3 102 108 216 233 114 125 215 235 224 245 16
17 18 17 53 1 21 -10 37 -22 37 -28 0 -6 -27 -157 -59 -336 -33 -179 -58 -326
-56 -328 10 -11 219 -91 225 -87 5 3 94 129 199 280 l191 274 33 -11 c17 -6
35 -14 39 -17 4 -4 1 -139 -7 -301 -8 -162 -15 -315 -15 -340 l0 -46 118 -31
c64 -17 118 -28 120 -25 1 4 72 140 157 302 l154 295 37 -2 c20 -2 39 -4 40
-6 2 -2 17 -155 33 -341 16 -185 31 -339 33 -341 8 -8 230 -36 237 -30 3 3 58
149 121 323 115 315 116 317 145 320 17 1 35 -1 41 -5 6 -5 44 -158 84 -340
l73 -333 123 0 c120 0 124 1 129 23 3 12 34 157 70 322 36 165 68 308 71 318
4 12 16 17 42 17 l37 0 114 -318 c63 -174 118 -321 122 -326 9 -10 216 14 233
28 9 8 22 117 41 346 15 184 29 337 31 339 2 2 20 4 41 5 l37 1 153 -295 c84
-162 157 -298 162 -303 6 -6 230 47 237 56 1 1 -5 124 -12 272 -7 149 -13 304
-13 347 l-1 76 31 11 c18 6 33 11 35 11 1 0 91 -127 199 -282 109 -156 199
-284 200 -285 5 -7 225 92 225 101 0 11 -104 596 -116 648 -5 24 -1 30 30 45
20 9 37 15 39 12 4 -6 425 -469 447 -493 17 -18 21 -17 119 39 56 31 103 60
105 64 3 4 -42 155 -100 336 l-104 330 22 17 c13 10 29 18 35 18 7 0 126 -96
265 -213 139 -117 259 -216 266 -221 10 -6 119 69 195 134 4 4 -58 146 -138
316 -80 169 -145 313 -145 319 0 7 10 21 23 33 l23 21 298 -190 298 -191 84
83 c46 46 84 87 84 91 0 3 -82 134 -182 290 -99 156 -183 290 -185 298 -2 9 6
25 19 37 l23 21 285 -135 c157 -74 300 -140 317 -148 l33 -14 74 96 74 97 -51
62 c-29 34 -130 154 -224 266 -95 113 -173 209 -173 214 0 5 9 20 19 33 l18
24 324 -103 c178 -56 329 -104 335 -107 13 -5 138 207 127 217 -15 13 -488
442 -501 455 -12 10 -11 18 2 44 9 17 19 31 23 31 4 0 159 -27 345 -61 187
-34 341 -59 343 -58 5 5 94 224 92 225 -15 9 -521 363 -544 380 -29 22 -31 26
-20 54 11 29 14 30 72 30 33 0 190 -7 350 -15 159 -8 291 -12 293 -10 11 11
62 228 55 235 -4 5 -145 79 -311 166 l-304 157 6 31 c4 17 10 33 14 37 4 3
160 18 347 34 187 15 343 29 346 31 3 2 11 49 18 106 7 57 15 110 17 119 3 13
-63 40 -333 137 -323 117 -340 122 -375 110 -39 -12 -65 -3 -38 14 8 5 66 39
128 76 324 193 545 406 653 628 61 125 82 226 77 353 -6 123 -27 189 -92 284
-126 185 -376 253 -526 142 -42 -31 -50 -31 -50 -2 0 38 -49 125 -91 160 -45
39 -97 57 -163 57 -42 0 -48 3 -57 28 -12 32 -27 92 -34 143 -3 20 -19 54 -35
74 -51 65 -33 76 30 19 l40 -36 260 182 c143 100 262 186 266 191 5 9 -70 206
-84 221 -4 3 -155 -20 -336 -53 -182 -32 -336 -59 -343 -59 -7 0 -20 14 -28
30 l-16 30 58 54 c32 29 148 135 258 235 110 101 199 187 197 193 -8 29 -115
198 -125 198 -7 0 -154 -45 -327 -100 -173 -55 -320 -100 -326 -100 -10 0 -44
42 -44 54 0 2 101 125 225 271 l224 267 -72 94 c-40 52 -77 94 -82 94 -6 0
-150 -65 -319 -145 l-309 -146 -24 22 c-12 13 -23 26 -23 30 0 4 82 135 182
291 99 156 183 290 185 298 2 9 -31 50 -79 98 l-84 82 -294 -188 -295 -189
-27 20 c-16 12 -28 24 -28 28 0 4 65 145 145 315 80 169 145 312 144 318 0 6
-41 42 -91 80 -81 61 -93 67 -111 56 -11 -6 -132 -107 -269 -222 -243 -205
-250 -210 -275 -197 -14 8 -28 19 -30 26 -3 6 41 155 96 331 56 175 101 323
101 329 0 11 -190 123 -207 123 -4 -1 -111 -115 -238 -254 l-230 -253 -32 15
c-18 9 -33 23 -33 31 0 9 24 153 54 321 30 168 56 316 58 329 3 22 -6 28 -97
67 -55 23 -107 43 -115 43 -9 0 -99 -120 -210 -279 -107 -154 -197 -280 -201
-280 -3 0 -20 5 -37 11 l-32 11 5 81 c10 152 25 488 25 551 l0 63 -116 32
c-64 17 -118 30 -119 29 -1 -2 -73 -141 -160 -309 l-158 -306 -39 10 c-21 5
-38 12 -38 16 -3 61 -60 674 -63 678 -11 10 -229 35 -237 27 -5 -5 -59 -148
-121 -319 -61 -170 -114 -313 -118 -317 -4 -4 -22 -5 -42 -2 l-35 6 -74 334
-73 334 -123 0 c-68 0 -124 -1 -124 -2z m160 -113 c0 -9 131 -596 136 -609 3
-7 -4 -21 -16 -31 -11 -10 -20 -26 -20 -35 0 -15 -23 -17 -227 -23 -360 -10
-632 -43 -943 -112 -630 -141 -1236 -422 -1753 -813 -331 -249 -664 -582 -907
-907 -505 -673 -808 -1444 -902 -2290 -21 -189 -18 -812 5 -990 24 -185 52
-351 89 -510 16 -71 33 -155 38 -185 4 -30 11 -72 15 -92 7 -37 6 -38 -22 -38
-17 0 -52 -7 -79 -15 -32 -10 -135 -19 -303 -27 -245 -11 -254 -11 -268 7 -7
11 -12 26 -11 34 2 8 116 73 254 145 138 72 262 139 277 149 38 25 46 68 29
152 -14 70 -30 98 -67 118 -11 5 -154 22 -319 36 l-300 26 -7 29 c-5 17 -6 32
-4 34 2 3 127 49 277 103 150 55 283 104 295 110 39 20 56 74 50 150 -6 73
-24 110 -60 126 -12 6 -154 39 -315 74 l-293 64 3 35 3 35 303 66 c201 44 309
73 322 84 55 50 53 222 -3 258 -12 7 -147 58 -299 113 l-278 99 0 32 c0 26 5
34 23 37 12 3 141 14 287 26 146 12 282 26 303 31 47 12 66 41 84 130 13 64
13 72 -4 107 -17 34 -39 48 -288 177 -275 143 -292 155 -266 194 8 12 45 12
242 2 392 -19 401 -19 441 26 23 25 57 143 51 175 -3 15 -14 36 -24 47 -10 11
-123 93 -251 182 -128 89 -237 165 -242 170 -5 5 -4 21 4 38 9 24 17 30 34 26
11 -2 149 -27 305 -55 281 -50 284 -50 320 -33 27 14 44 34 69 82 36 72 40
113 14 153 -9 14 -114 115 -234 223 l-216 196 16 30 c10 16 23 27 30 24 87
-33 564 -178 585 -178 43 0 73 21 112 80 41 62 51 97 36 134 -5 15 -96 128
-201 253 -194 229 -203 244 -167 274 9 8 90 -26 287 -119 151 -71 288 -129
303 -129 41 0 77 22 121 75 43 53 56 88 45 127 -4 14 -80 140 -169 279 l-161
252 23 23 23 23 255 -163 c140 -89 266 -165 279 -169 43 -11 79 4 138 58 87
79 86 85 -72 418 -69 148 -125 270 -123 271 2 0 13 9 25 20 22 18 23 17 263
-185 230 -193 243 -202 283 -202 32 0 56 9 98 37 63 41 83 72 82 119 -1 26
-92 328 -168 555 -14 42 -14 42 15 57 33 17 15 34 289 -268 84 -92 161 -172
171 -177 33 -18 86 -11 147 20 46 23 65 39 78 67 17 35 16 41 -38 342 -30 168
-52 309 -49 313 4 4 19 9 33 13 24 6 36 -8 203 -248 107 -153 188 -259 202
-266 36 -16 71 -13 138 12 36 13 67 33 80 50 23 32 23 42 5 425 -6 129 -9 235
-7 238 3 2 18 6 34 9 l29 6 133 -261 c73 -143 144 -273 158 -289 30 -37 72
-44 152 -27 74 16 108 44 117 95 4 26 55 588 55 608 0 2 15 3 33 3 l33 0 103
-287 c124 -347 126 -349 231 -346 79 3 132 23 147 56 6 12 38 151 72 307 35
157 64 291 66 298 4 11 75 18 75 7z m676 -43 c7 -4 22 -122 38 -309 14 -166
30 -313 35 -325 14 -38 43 -56 110 -72 75 -17 112 -12 143 19 13 13 86 145
163 294 134 259 141 271 165 265 14 -3 28 -8 32 -12 3 -4 0 -146 -8 -315 -14
-294 -14 -310 3 -345 15 -30 29 -41 77 -60 65 -26 112 -30 144 -13 11 6 102
127 201 270 l182 260 29 -11 c17 -5 30 -15 30 -22 0 -6 -24 -147 -54 -313 -30
-166 -52 -312 -49 -325 9 -36 40 -64 105 -93 46 -21 68 -25 95 -20 41 7 30 -4
277 268 104 114 190 207 192 207 10 0 54 -24 54 -30 0 -4 -41 -135 -91 -291
-85 -264 -103 -348 -85 -377 4 -7 33 -31 64 -54 45 -33 64 -41 99 -41 24 0 50
6 60 15 101 87 475 398 480 398 10 0 43 -32 43 -41 0 -5 -58 -132 -129 -284
-71 -151 -130 -285 -131 -297 -5 -52 2 -69 43 -108 56 -55 92 -73 133 -67 19
3 144 77 298 175 l265 170 22 -24 22 -23 -75 -118 c-41 -65 -117 -184 -169
-265 l-94 -147 -81 79 c-71 70 -86 80 -117 80 -20 0 -47 -5 -61 -11 -23 -11
-31 -6 -118 74 -194 180 -459 376 -711 529 -157 95 -504 267 -672 333 -266
105 -593 199 -861 246 l-131 24 -11 42 c-14 52 -41 68 -141 82 -40 5 -74 11
-76 13 -1 2 32 98 74 213 43 116 90 245 105 288 23 64 32 77 50 77 11 0 26 -4
32 -8z m-263 -689 c-7 -2 -21 -2 -30 0 -10 3 -4 5 12 5 17 0 24 -2 18 -5z
m-414 -119 l39 -109 127 -5 127 -5 -34 -24 c-18 -14 -63 -49 -100 -78 l-66
-52 35 -112 c19 -61 33 -113 31 -115 -3 -2 -48 26 -101 63 l-97 67 -97 -67
c-53 -37 -98 -65 -100 -63 -2 2 10 54 28 115 18 61 30 113 28 115 -2 2 -45 35
-96 73 l-92 70 76 7 c42 3 97 6 122 6 l46 0 39 115 c21 64 41 114 42 112 2 -2
22 -53 43 -113z m-1100 -204 l18 -25 113 28 c62 15 115 26 117 24 2 -2 -28
-45 -67 -96 -38 -51 -70 -94 -70 -97 0 -2 27 -48 60 -101 34 -52 59 -97 57
-99 -2 -2 -50 12 -107 31 -57 19 -109 35 -114 35 -6 -1 -28 -22 -49 -48 -20
-26 -55 -67 -77 -92 l-40 -45 6 125 6 125 -111 44 c-61 24 -108 47 -106 51 3
4 17 11 32 15 16 3 65 17 110 31 l81 25 7 125 7 125 54 -78 c30 -43 63 -89 73
-103z m2269 -89 c7 -4 58 -20 113 -36 54 -15 99 -30 99 -34 0 -4 -47 -26 -105
-50 l-104 -43 -3 -121 -3 -120 -75 87 c-85 99 -68 96 -213 43 -110 -41 -108
-48 -28 81 28 45 51 87 51 93 0 6 -28 48 -63 93 -79 101 -81 105 -60 100 10
-2 63 -15 119 -27 l100 -24 70 102 69 102 10 -119 c7 -77 15 -122 23 -127z
m-3231 -298 c43 24 92 51 109 60 l31 16 -43 -106 c-24 -58 -44 -110 -44 -117
0 -6 39 -48 87 -94 l88 -83 -70 6 c-38 3 -94 8 -123 11 l-52 5 -54 -112 -54
-112 -11 39 c-5 22 -15 59 -21 84 -6 25 -16 61 -21 81 l-9 36 -120 13 c-66 7
-117 16 -115 20 2 4 47 33 100 64 109 67 105 56 75 201 -11 53 -20 99 -20 102
0 3 43 -32 95 -76 l95 -82 77 44z m4273 -48 c-11 -64 -16 -113 -10 -119 4 -4
52 -35 106 -66 l97 -58 -49 -7 c-27 -4 -83 -12 -124 -18 l-75 -12 -20 -90
c-39 -167 -29 -163 -91 -36 l-54 113 -47 -6 c-27 -3 -82 -8 -123 -11 l-75 -6
89 85 89 85 -46 110 c-26 61 -47 112 -47 115 0 2 48 -22 107 -54 l107 -58 91
78 c49 43 91 75 93 71 1 -4 -7 -56 -18 -116z m-1784 16 c1068 -145 2005 -706
2625 -1573 163 -227 300 -471 409 -728 l62 -144 -34 -28 c-18 -15 -35 -28 -38
-28 -3 0 -25 51 -50 113 -181 456 -494 916 -867 1277 -292 283 -598 496 -975
679 -678 330 -1432 444 -2188 330 -1659 -250 -2952 -1590 -3150 -3266 l-12
-102 -41 -20 c-23 -11 -43 -18 -46 -15 -3 2 1 57 8 122 121 1118 738 2138
1671 2762 509 340 1090 556 1680 624 207 24 207 24 510 21 216 -3 321 -9 436
-24z m-116 -261 c814 -93 1542 -442 2115 -1015 385 -384 661 -822 835 -1324
l47 -134 -44 -86 c-26 -52 -54 -129 -70 -194 l-27 -108 -24 108 c-13 59 -48
182 -78 272 l-54 164 35 38 c40 45 49 74 42 136 -6 57 -31 92 -88 121 -34 18
-54 22 -85 17 l-41 -6 -58 103 c-138 248 -316 485 -521 697 l-121 126 49 79
c28 43 46 81 41 85 -58 38 -775 483 -785 486 -8 3 -26 -16 -47 -50 -19 -31
-37 -58 -41 -60 -4 -3 -50 15 -101 39 -255 119 -566 209 -883 255 l-140 21
-83 55 -83 55 -167 0 -168 0 -90 -60 c-54 -36 -101 -60 -117 -60 -45 0 -309
-47 -419 -75 -121 -31 -262 -75 -373 -118 -68 -26 -77 -32 -63 -42 14 -10 36
-5 124 27 188 70 471 141 648 163 l50 6 -32 -21 -33 -22 0 -200 0 -200 -31
-39 -31 -39 31 -37 31 -38 0 -230 1 -230 154 -102 155 -103 160 0 159 0 154
100 154 100 7 53 c3 28 6 133 6 231 0 178 0 180 26 218 l27 38 -27 34 c-21 28
-26 46 -26 91 l0 56 48 -7 c89 -12 347 -82 473 -128 142 -51 259 -102 259
-112 0 -26 -46 -73 -86 -89 l-45 -17 2 -49 c2 -27 0 -51 -3 -54 -3 -4 -70 19
-148 50 -129 51 -144 55 -158 41 -13 -13 -13 -16 -1 -20 58 -20 214 -79 247
-94 l40 -18 -159 -253 c-87 -140 -156 -257 -154 -262 7 -10 786 -494 794 -493
3 1 37 50 74 109 52 82 65 110 55 116 -122 71 -470 297 -469 304 1 6 40 72 86
147 l86 137 127 -80 c242 -151 462 -374 659 -669 60 -90 165 -279 189 -337 17
-45 21 -48 41 -35 15 10 -73 188 -169 341 -120 194 -325 435 -501 590 l-49 43
47 76 c26 41 53 85 61 98 15 22 12 24 -125 109 -123 77 -139 90 -130 106 5 11
15 19 22 19 15 0 157 -102 272 -195 367 -298 673 -711 854 -1155 l39 -95 -27
-14 c-34 -18 -38 -25 -46 -79 -4 -24 -9 -50 -11 -56 -3 -8 12 -12 48 -11 84 0
85 -5 48 -292 -16 -131 -35 -256 -41 -278 -31 -113 -143 -202 -198 -158 l-22
18 31 240 c39 295 41 377 11 438 -25 51 -49 70 -109 86 -40 11 -86 5 -179 -24
-16 -5 -23 -3 -23 6 0 8 -33 82 -74 165 -73 148 -201 351 -270 429 -31 35 -35
37 -36 18 0 -12 28 -62 63 -110 35 -48 83 -119 106 -158 48 -76 181 -342 181
-362 0 -7 -31 -43 -68 -81 -63 -63 -70 -68 -80 -51 -36 57 -160 64 -265 16
-32 -14 -57 -21 -57 -15 0 23 -122 263 -175 345 -280 431 -706 723 -1210 829
-164 35 -455 44 -628 20 -416 -59 -786 -244 -1083 -542 -195 -196 -344 -434
-448 -718 -6 -18 -8 -18 -31 4 l-24 23 -208 -56 c-115 -30 -209 -54 -211 -52
-1 1 17 63 41 136 89 268 214 505 379 717 34 43 47 69 43 80 -9 23 -63 -39
-166 -193 -139 -207 -260 -475 -334 -741 -2 -6 -34 -21 -72 -32 -55 -17 -77
-31 -115 -69 -25 -26 -56 -64 -67 -83 -28 -47 -27 -27 5 129 34 166 118 418
188 566 31 65 56 120 56 121 0 2 -8 4 -18 4 -14 0 -32 -27 -67 -102 -106 -226
-181 -477 -220 -733 -14 -94 -25 -130 -79 -250 -35 -77 -92 -209 -127 -293
-61 -146 -64 -152 -72 -120 -15 64 -10 476 7 613 22 174 58 347 101 489 40
131 40 136 21 136 -17 0 -54 -106 -95 -277 -73 -302 -97 -627 -70 -948 l11
-130 -98 -242 c-54 -133 -100 -241 -101 -239 -9 9 -65 282 -82 399 l-20 139
38 131 c75 256 90 431 44 508 -16 28 -25 34 -51 32 -35 -3 -35 -22 -1 197 128
805 576 1545 1247 2060 74 57 100 90 71 90 -5 0 -47 -28 -92 -62 -719 -547
-1176 -1346 -1285 -2242 l-7 -59 -120 -33 c-66 -18 -121 -31 -123 -29 -2 1 2
49 8 106 154 1440 1162 2634 2555 3028 206 58 464 103 686 121 137 10 507 5
639 -10z m-3204 -371 c-12 -89 -13 -116 -3 -122 7 -5 56 -32 110 -61 l98 -53
-123 -24 -123 -24 -19 -112 c-11 -62 -23 -113 -27 -113 -4 0 -31 44 -60 98
-29 53 -53 98 -54 100 -1 1 -51 -4 -110 -13 -60 -8 -115 -15 -124 -15 -8 0 22
38 67 84 45 46 82 88 82 94 0 5 -22 57 -49 116 l-50 105 52 -23 c29 -13 78
-36 109 -51 l56 -28 69 60 c37 33 77 70 87 82 11 12 21 19 23 17 2 -2 -3 -55
-11 -117z m3494 51 c171 -35 369 -94 524 -155 170 -67 247 -105 239 -118 -25
-44 -138 -224 -143 -230 -4 -4 -49 11 -100 33 -171 75 -406 149 -585 184 -44
9 -90 18 -102 21 -22 5 -23 9 -23 135 0 72 -3 130 -7 130 -5 0 -19 10 -33 21
l-25 21 55 -7 c30 -3 120 -19 200 -35z m2351 -140 c5 0 41 16 79 35 38 19 73
35 77 35 5 0 14 -9 21 -20 10 -17 7 -30 -25 -94 l-36 -74 81 -88 c44 -49 80
-90 78 -91 -1 -2 -53 4 -115 12 -62 8 -116 13 -120 11 -3 -3 -31 -52 -61 -110
l-55 -105 -25 122 -25 122 -115 22 c-63 11 -117 22 -120 22 -3 1 39 26 93 55
54 29 102 57 108 63 6 6 4 45 -6 111 -8 56 -15 109 -15 118 0 10 34 -16 86
-65 47 -45 90 -81 95 -81z m1229 97 c0 -4 -89 -113 -197 -242 -116 -138 -203
-250 -211 -272 -11 -33 -10 -41 12 -88 36 -72 76 -107 123 -108 22 -1 162 38
331 92 281 89 294 92 307 75 8 -11 15 -24 15 -31 0 -6 -101 -103 -224 -215
-123 -112 -231 -215 -240 -230 -23 -37 -20 -81 10 -144 30 -64 60 -87 112 -86
20 0 164 23 319 51 155 28 288 51 295 51 8 0 19 -13 25 -29 l10 -29 -192 -135
-193 -135 -30 20 c-44 27 -123 29 -159 2 -15 -11 -30 -32 -33 -45 -13 -54 -35
-31 -84 88 -108 260 -308 622 -457 831 -59 82 -60 85 -42 104 11 13 18 36 18
63 0 36 -8 53 -59 119 -32 42 -57 78 -55 79 2 2 60 29 129 60 69 32 195 91
280 131 l155 73 17 -21 c10 -11 18 -25 18 -29z m-4175 -39 l35 -23 0 -256 c0
-141 -3 -323 -7 -406 l-6 -150 -28 -17 c-35 -21 -103 -20 -140 1 l-29 17 0
407 0 407 33 21 c42 27 98 27 142 -1z m3363 -113 c-3 -3 -20 13 -38 37 l-33
43 38 -37 c22 -21 36 -40 33 -43z m-1477 -486 c214 -133 242 -148 253 -134 10
15 27 2 128 -103 199 -207 356 -416 497 -661 l71 -124 -30 -33 c-34 -39 -53
-101 -44 -141 18 -78 87 -133 167 -133 l45 0 45 -137 c87 -259 153 -581 133
-640 -29 -84 -133 -175 -180 -157 -36 14 -36 37 -5 281 36 288 39 383 11 446
-34 76 -71 86 -241 65 -21 -3 -27 5 -48 57 -217 538 -592 1013 -1053 1331 -55
38 -97 74 -95 80 5 18 94 154 100 154 3 0 113 -68 246 -151z m-5512 -211 l16
-112 80 -18 c44 -10 98 -24 120 -29 l40 -11 -113 -54 c-110 -52 -114 -54 -108
-81 3 -15 8 -71 11 -123 l6 -95 -84 89 -84 89 -109 -45 c-60 -26 -111 -45
-112 -43 -2 2 21 50 52 107 l55 104 -80 92 c-44 51 -74 92 -67 92 7 0 60 -9
117 -20 57 -11 107 -17 111 -15 4 3 34 48 65 100 32 52 60 93 63 90 3 -3 13
-56 21 -117z m7201 -38 c34 -55 68 -100 76 -100 7 0 59 9 115 20 57 11 104 18
107 16 2 -2 -25 -37 -59 -77 -34 -41 -69 -82 -77 -91 -12 -15 -7 -28 43 -118
31 -56 55 -103 52 -106 -2 -2 -52 15 -110 40 l-107 44 -86 -90 -86 -89 7 103
c4 57 9 111 12 121 3 14 -18 28 -108 72 -63 30 -107 56 -98 59 7 3 59 16 113
30 99 25 116 35 116 70 0 28 22 196 25 196 2 0 31 -45 65 -100z m-3974 -507
l44 -28 0 -65 c0 -38 5 -71 12 -78 9 -9 9 -15 0 -24 -8 -8 -12 -48 -12 -115
l0 -103 -55 0 -55 0 0 95 0 95 -35 0 -35 0 0 -95 0 -95 -55 0 -55 0 0 103 c0
67 -4 107 -12 115 -9 9 -9 15 0 24 7 7 12 40 12 78 l0 65 43 27 c60 39 142 39
203 1z m311 -68 c26 -52 51 -95 55 -95 5 0 8 43 8 95 l0 95 54 0 55 0 3 -107
c2 -59 2 -158 0 -220 l-3 -113 -52 0 -52 0 -50 95 c-27 52 -53 95 -57 95 -5 0
-8 -43 -8 -95 l0 -95 -50 0 -50 0 0 96 c0 52 -5 105 -11 116 -8 14 -8 23 0 31
6 6 11 50 11 104 l0 93 50 0 50 0 47 -95z m528 65 l43 -29 3 -73 c2 -40 3
-112 1 -161 l-4 -87 -43 -30 c-41 -28 -49 -30 -144 -30 l-101 0 0 103 c0 67
-4 107 -12 115 -9 9 -9 15 0 24 8 8 12 46 12 105 l0 93 101 0 c95 0 103 -2
144 -30z m3866 -276 c10 -11 19 -34 19 -52 0 -47 46 -181 71 -208 l22 -24 -33
0 c-18 0 -64 -14 -102 -32 -83 -38 -111 -33 -145 27 -55 97 -6 283 90 344 l31
19 14 -26 c7 -15 22 -36 33 -48z m-8421 -171 l43 -103 121 0 121 -1 -30 -27
c-17 -15 -57 -50 -90 -78 -68 -59 -67 -40 -7 -201 35 -96 43 -95 -90 -11 -43
26 -83 48 -89 48 -6 0 -52 -31 -102 -70 -50 -38 -92 -69 -93 -67 -1 1 8 47 22
102 13 55 24 108 24 117 0 11 -38 44 -100 87 l-100 69 115 7 c71 5 121 12 129
20 7 7 25 60 41 119 16 58 32 102 36 98 3 -4 25 -53 49 -109z m3800 -58 l0
-35 -66 0 -66 0 2 -67 c1 -38 2 -119 1 -180 l-1 -113 -55 0 -55 0 -1 113 c-1
61 0 142 1 180 l2 67 -71 0 -71 0 0 35 0 35 190 0 190 0 0 -35z m192 -47 l3
-83 48 -3 47 -3 0 85 0 86 50 0 50 0 0 -94 c0 -58 4 -97 11 -102 8 -4 8 -9 0
-17 -7 -7 -11 -53 -11 -114 l0 -103 -50 0 -50 0 0 96 0 95 -47 -3 -48 -3 -3
-92 -3 -93 -49 0 -48 0 -4 113 c-1 61 -2 158 0 215 l3 102 49 0 49 0 3 -82z
m588 47 l0 -35 -90 0 -90 0 0 -50 0 -50 50 0 50 0 0 -35 0 -35 -50 0 -51 0 3
-57 3 -58 88 -3 87 -3 0 -34 0 -35 -140 0 -140 0 0 104 c0 59 -4 108 -10 111
-7 4 -7 12 0 25 5 10 10 57 10 104 l0 86 140 0 140 0 0 -35z m3328 14 c126
-61 155 -284 61 -471 -55 -108 -110 -152 -185 -146 -56 4 -84 49 -84 133 0
132 53 227 151 273 63 29 67 37 44 81 -16 32 -33 41 -78 41 -65 0 -122 -55
-176 -170 -55 -118 -74 -208 -75 -370 -1 -134 1 -148 22 -185 37 -65 83 -90
163 -89 57 0 79 6 141 36 139 69 232 186 272 342 29 108 52 160 98 211 63 73
138 87 182 34 33 -39 40 -67 33 -141 -7 -75 -56 -178 -100 -212 -18 -13 -51
-30 -75 -37 -36 -10 -41 -15 -36 -33 18 -61 55 -84 117 -72 130 24 237 250
237 501 0 89 -15 141 -48 175 l-27 26 66 1 c103 3 147 -32 176 -144 19 -75 19
-72 -11 -180 -31 -111 -44 -140 -104 -217 -43 -56 -46 -64 -47 -120 l0 -60
-55 -28 c-74 -38 -173 -68 -221 -68 -22 0 -57 9 -79 20 -38 20 -90 76 -90 98
0 7 -4 12 -10 12 -5 0 -10 -3 -10 -8 0 -15 -87 -112 -135 -150 -106 -83 -247
-144 -381 -163 l-74 -11 0 -151 c0 -165 -17 -423 -30 -447 -7 -14 -225 -69
-234 -59 -2 2 0 27 4 55 21 128 32 378 26 553 l-7 183 46 -45 c44 -44 130 -87
175 -87 17 0 20 7 20 53 0 141 -47 438 -106 669 -25 98 -32 142 -26 155 17 31
135 138 185 167 61 36 150 65 201 65 22 1 60 -9 84 -20z m1312 -250 c103 -52
159 -152 160 -288 1 -273 -212 -548 -592 -765 l-48 -27 0 30 c0 24 5 32 24 37
32 8 33 19 24 214 -8 186 -12 210 -33 210 -12 0 -15 14 -15 65 0 59 3 69 37
112 46 61 87 151 103 228 39 187 181 263 340 184z m-3417 -351 l15 -46 -34 -4
-35 -4 6 40 c14 91 22 93 48 14z m-1716 26 c40 -26 56 -62 61 -139 4 -66 -8
-217 -25 -299 l-5 -30 48 43 c90 81 222 121 294 91 73 -30 119 -134 106 -238
-4 -26 -20 -150 -36 -276 -27 -209 -29 -231 -15 -253 27 -41 90 -27 150 33 50
49 75 107 75 173 0 90 30 261 61 356 43 129 91 209 178 296 100 99 205 154
295 154 42 0 70 -6 88 -18 l26 -18 7 29 c6 28 11 31 138 64 73 20 133 34 134
33 2 -1 -17 -154 -42 -340 -25 -186 -48 -368 -51 -405 -6 -65 -6 -68 19 -85
44 -28 111 5 169 85 36 50 45 83 68 275 25 198 30 216 41 155 28 -145 29 -447
3 -587 -6 -33 -7 -34 -26 -16 -11 10 -24 29 -29 41 -9 23 -11 22 -48 -29 -79
-104 -179 -167 -281 -176 -72 -7 -110 7 -148 53 l-27 33 -42 -50 c-61 -73
-130 -127 -193 -150 -110 -42 -221 -8 -272 81 -13 22 -25 40 -28 40 -3 0 -16
-21 -30 -47 -40 -76 -143 -178 -214 -212 -155 -75 -266 -35 -297 104 -11 52
-9 83 24 333 33 250 35 278 22 299 -31 46 -130 13 -176 -58 -23 -35 -93 -596
-80 -632 13 -34 45 -50 82 -42 32 7 34 2 22 -69 -5 -35 -11 -41 -57 -62 -28
-13 -83 -29 -122 -35 -64 -11 -74 -11 -110 7 -24 12 -47 34 -60 57 l-22 39
-33 -42 c-77 -95 -244 -192 -401 -232 -144 -36 -253 -10 -340 83 l-46 49 -23
-47 c-30 -65 -159 -190 -235 -231 -34 -17 -66 -32 -71 -32 -4 0 -27 24 -50 54
l-42 54 37 6 c100 16 253 136 309 243 28 53 31 68 36 183 6 153 31 260 93 389
82 169 237 297 400 331 94 20 172 -18 216 -104 26 -50 35 -177 19 -257 -15
-71 -60 -165 -100 -212 -43 -48 -110 -74 -150 -58 -48 20 -65 65 -59 158 7
131 72 231 166 256 41 11 43 13 38 42 -7 37 -49 75 -83 75 -92 0 -182 -118
-233 -306 -26 -96 -38 -317 -21 -381 42 -156 216 -177 397 -48 65 47 144 140
170 202 22 51 136 997 124 1028 -11 30 -45 45 -84 38 l-29 -6 8 49 c9 61 8 60
57 85 89 45 205 56 255 23z m2233 -54 c8 -15 1 -89 -26 -292 -30 -232 -34
-281 -25 -327 15 -76 46 -120 99 -143 l44 -20 -7 -76 c-8 -94 -49 -318 -70
-389 -9 -31 -22 -54 -33 -57 -24 -7 -547 -86 -571 -86 -17 0 -15 8 19 88 40
93 91 250 110 342 l12 55 72 0 c78 1 192 33 219 63 8 9 18 42 22 72 l7 55 -51
-3 c-80 -6 -81 -1 -42 306 44 346 41 330 70 364 53 64 129 88 151 48z m-461
-94 c-1 -43 -4 -37 -23 38 -6 26 -5 28 8 17 10 -9 16 -29 15 -55z m-3683 -92
c-46 -221 -47 -515 -3 -730 11 -52 11 -65 -1 -80 -7 -11 -29 -48 -47 -84 -99
-195 -129 -436 -74 -587 31 -83 116 -166 195 -189 77 -22 175 -15 282 21 l83
28 100 -99 99 -98 -193 -66 c-105 -37 -221 -79 -256 -93 -36 -15 -69 -27 -75
-27 -15 0 -130 144 -205 257 -82 123 -180 312 -234 453 -77 199 -89 122 103
678 92 268 182 533 201 589 18 56 34 101 36 99 2 -2 -3 -34 -11 -72z m6500
-239 c6 -105 5 -122 -10 -134 -9 -8 -18 -12 -20 -10 -2 2 -6 81 -10 174 l-7
170 21 -40 c15 -30 21 -68 26 -160z m-7001 118 c-5 -39 -156 -531 -208 -678
l-14 -40 -6 30 c-4 17 -12 90 -18 163 l-10 132 75 153 c65 131 164 287 182
287 3 0 2 -21 -1 -47z m-1882 -114 l66 -87 112 34 c62 19 114 33 115 31 2 -2
-26 -47 -62 -100 -37 -57 -62 -103 -58 -110 4 -7 34 -50 66 -96 33 -45 57 -85
55 -88 -3 -2 -55 10 -117 28 -71 21 -114 29 -118 22 -4 -5 -36 -49 -72 -97
-43 -58 -66 -81 -67 -69 -1 10 -5 65 -8 123 l-7 105 -115 41 -116 40 114 41
114 40 2 59 c4 104 15 186 22 178 4 -5 37 -48 74 -95z m723 -206 c1 -269 16
-431 62 -663 14 -74 26 -153 25 -175 0 -24 -51 -190 -125 -407 -144 -421 -170
-512 -166 -571 3 -39 5 -42 33 -45 77 -8 176 117 317 396 l91 182 40 -94 39
-95 -54 -104 c-142 -272 -289 -426 -456 -477 -80 -25 -145 -25 -198 -1 -170
77 -172 380 -7 886 31 94 93 275 139 404 110 306 144 430 151 556 5 82 3 107
-11 133 -9 18 -19 32 -21 32 -8 0 -85 -159 -131 -272 -64 -156 -110 -284 -244
-683 -147 -439 -231 -675 -239 -675 -25 1 -32 19 -22 56 11 43 4 88 -24 145
l-18 36 133 399 c73 220 162 478 197 574 111 301 240 545 337 639 27 26 115
69 146 71 3 0 6 -111 6 -247z m7843 52 l1 -60 115 -40 c63 -22 109 -42 102
-46 -40 -22 -220 -78 -266 -83 -31 -3 -74 -17 -105 -34 -48 -28 -224 -88 -232
-79 -2 2 26 47 63 100 l67 97 -67 97 c-37 53 -65 98 -63 100 2 3 51 -10 109
-26 58 -17 109 -31 114 -31 5 0 40 42 78 94 l70 94 6 -62 c4 -33 7 -88 8 -121z
m-1062 -120 c-6 -284 -21 -432 -46 -439 -43 -12 -283 -57 -287 -53 -2 2 3 48
11 103 19 133 35 304 35 387 0 54 3 67 15 67 49 0 177 96 232 174 32 45 39 50
42 32 2 -11 1 -133 -2 -271z m2003 282 c0 -2 -10 -12 -22 -23 l-23 -19 19 23
c18 21 26 27 26 19z m-110 -123 c-136 -137 -273 -240 -466 -348 -56 -31 -109
-65 -119 -76 -10 -11 -23 -43 -30 -72 l-11 -53 -150 -64 c-191 -81 -476 -176
-724 -241 -107 -28 -200 -53 -206 -55 -6 -2 -19 -36 -29 -77 -88 -360 -296
-808 -528 -1133 -428 -599 -1008 -1042 -1689 -1289 -221 -80 -509 -148 -773
-183 -166 -21 -637 -24 -800 -5 -435 53 -836 172 -1200 356 -154 78 -385 216
-385 230 0 5 32 48 71 97 l71 88 67 -43 c353 -227 790 -394 1214 -465 138 -23
365 -46 374 -38 3 3 3 12 0 20 -4 10 -35 16 -113 21 -460 30 -998 208 -1426
473 l-90 55 44 45 c23 25 73 71 109 104 l67 59 77 -45 c348 -206 728 -335
1150 -391 178 -23 533 -23 710 0 229 31 457 85 642 151 107 39 116 44 105 62
-6 9 -28 5 -87 -17 -807 -304 -1751 -219 -2499 223 l-68 41 27 20 c16 12 66
49 113 82 l85 62 148 -73 c383 -187 759 -275 1179 -275 634 0 1231 217 1715
623 201 169 488 496 454 518 -10 7 -19 2 -34 -17 -152 -202 -372 -427 -546
-556 -388 -291 -804 -458 -1294 -519 -145 -18 -473 -16 -625 5 -232 31 -491
100 -681 181 -129 56 -269 129 -266 139 2 5 50 38 108 73 l105 63 100 -44
c1062 -466 2311 -105 2953 854 42 63 89 138 105 166 l27 50 312 71 c172 38
313 67 315 63 4 -11 -53 -152 -119 -290 -33 -69 -60 -127 -60 -130 0 -3 7 -6
15 -8 18 -4 122 205 177 354 l34 92 157 36 c86 20 161 36 167 36 11 0 -70
-247 -113 -344 -29 -66 -32 -86 -12 -86 18 0 64 110 127 300 l48 145 119 28
118 28 21 67 c23 71 63 257 63 291 0 22 -8 19 165 61 249 59 645 177 832 246
l92 34 27 -25 c21 -19 38 -25 73 -25 39 0 63 10 139 55 119 70 240 158 322
234 36 33 67 60 70 61 2 0 -29 -34 -70 -76z m-1325 -75 c11 -20 13 -55 8 -150
l-6 -124 -44 -44 c-24 -24 -45 -42 -47 -40 -1 2 1 74 6 159 4 85 5 187 2 225
l-6 70 37 -35 c20 -19 43 -47 50 -61z m-1004 -14 c15 -8 48 -15 72 -15 l44 0
-4 -82 c-8 -176 -42 -460 -57 -475 -6 -7 -504 -93 -534 -93 -16 0 -22 4 -19
14 17 43 59 260 71 365 8 68 16 124 18 126 2 1 30 10 63 20 33 9 76 26 95 38
49 30 126 103 151 143 l20 34 26 -30 c14 -17 38 -37 54 -45z m-4165 -171 c63
-50 79 -93 79 -209 0 -92 -3 -106 -32 -168 -38 -79 -114 -163 -180 -200 -41
-22 -193 -71 -199 -64 -7 9 -34 68 -34 75 0 4 23 14 50 21 94 24 135 79 165
220 29 141 13 250 -37 251 -21 0 -78 -67 -101 -117 -30 -67 -75 -219 -84 -280
-3 -24 -9 -43 -14 -43 -16 0 -109 272 -109 320 0 29 100 126 169 164 93 50
150 67 223 63 57 -2 72 -7 104 -33z m-1281 -214 l13 -95 -75 -230 -76 -230
-14 45 c-7 25 -26 92 -42 150 l-28 105 96 240 96 240 8 -65 c5 -36 14 -108 22
-160z m-610 -150 c9 -58 32 -171 51 -251 l35 -147 -67 -161 c-38 -89 -71 -158
-75 -154 -8 10 -82 234 -108 330 l-19 72 79 216 c43 119 80 220 80 223 2 10 6
-12 24 -128z m8246 -87 l269 -98 0 -32 c0 -18 -1 -33 -2 -33 -2 -1 -147 -13
-323 -29 -212 -19 -328 -33 -343 -42 -32 -20 -54 -73 -60 -144 -4 -54 -2 -64
19 -88 14 -16 140 -88 299 -171 265 -137 275 -143 273 -170 -1 -16 -4 -31 -7
-33 -2 -3 -143 1 -313 9 -171 8 -322 11 -339 6 -43 -11 -70 -44 -89 -111 -20
-68 -14 -105 23 -139 15 -14 133 -98 262 -188 129 -90 238 -166 242 -169 4 -4
2 -21 -4 -39 -9 -24 -17 -30 -33 -26 -65 15 -585 104 -611 104 -43 0 -82 -34
-110 -94 -30 -64 -30 -105 -1 -144 12 -17 120 -119 240 -228 119 -108 217
-202 217 -208 -1 -6 -6 -20 -13 -32 -12 -21 -15 -20 -257 57 -350 112 -369
117 -408 107 -56 -15 -127 -130 -116 -187 4 -19 79 -116 210 -272 112 -134
204 -246 204 -250 0 -4 -8 -16 -17 -28 l-18 -22 -280 133 c-341 161 -350 163
-425 81 -48 -53 -64 -92 -53 -134 4 -13 83 -143 176 -288 l169 -264 -24 -23
-23 -23 -264 169 c-145 93 -279 172 -296 176 -42 8 -90 -15 -140 -66 -64 -66
-61 -79 94 -408 l133 -284 -24 -16 c-12 -10 -25 -17 -28 -17 -3 0 -113 90
-244 200 -130 110 -249 203 -264 208 -40 11 -79 -1 -134 -40 -55 -40 -68 -59
-68 -101 0 -23 98 -349 174 -578 14 -40 13 -41 -14 -58 l-29 -16 -208 229
c-114 125 -218 234 -231 242 -33 19 -82 15 -133 -11 -61 -31 -88 -58 -95 -95
-4 -24 72 -494 101 -622 4 -17 -2 -23 -27 -32 -17 -6 -35 -8 -38 -4 -4 5 -85
119 -179 256 -95 136 -183 254 -194 262 -28 20 -68 19 -134 -2 -61 -19 -98
-51 -106 -89 -2 -14 2 -163 10 -331 8 -168 12 -307 10 -310 -3 -2 -17 -5 -33
-6 -28 -2 -33 6 -164 259 -74 143 -143 272 -152 287 -27 40 -78 50 -160 31
-75 -17 -103 -42 -113 -98 -3 -17 -16 -158 -30 -314 -13 -155 -27 -287 -30
-292 -3 -6 -18 -10 -33 -10 -27 0 -30 7 -131 288 -57 158 -110 296 -118 308
-19 29 -56 44 -111 44 -62 0 -115 -15 -137 -40 -11 -13 -39 -117 -81 -307 -34
-158 -65 -297 -69 -310 -4 -18 -12 -23 -39 -23 -40 0 -25 -47 -117 375 -38
176 -57 246 -72 263 -38 42 -150 56 -212 26 -40 -19 -41 -21 -165 -367 l-93
-259 -30 6 c-17 4 -32 7 -33 9 -1 1 -14 138 -28 305 -15 166 -30 312 -35 325
-15 37 -44 56 -111 69 -81 16 -113 13 -140 -15 -16 -17 -284 -514 -302 -560
-2 -4 -18 -3 -35 4 -31 10 -32 13 -28 52 3 23 10 162 16 308 14 320 13 324
-79 360 -70 28 -143 31 -168 7 -11 -9 -95 -127 -189 -262 -97 -140 -177 -245
-186 -246 -8 0 -23 6 -33 13 -17 13 -16 27 33 300 28 157 51 301 51 319 0 47
-22 74 -90 108 -71 36 -116 38 -158 7 -17 -12 -117 -118 -223 -234 -106 -117
-196 -213 -200 -213 -4 0 -17 8 -29 18 l-22 18 91 285 c50 156 91 297 91 311
0 45 -20 75 -74 111 -64 42 -88 50 -127 42 -18 -4 -118 -81 -266 -205 -231
-195 -236 -199 -259 -183 -13 8 -24 19 -24 23 0 5 57 129 126 277 150 318 152
328 83 399 -57 59 -93 77 -139 71 -24 -3 -117 -57 -290 -167 -259 -166 -267
-170 -293 -129 -6 10 36 85 157 273 176 274 184 293 152 354 -8 15 -34 46 -59
70 -70 68 -77 66 -396 -83 -264 -125 -272 -128 -291 -110 -11 10 -20 22 -20
28 0 5 78 101 172 214 228 270 218 258 225 297 11 68 -83 196 -145 196 -18 0
-161 -41 -318 -91 -226 -71 -289 -87 -296 -77 -5 7 -12 20 -17 28 -6 11 44 63
212 215 121 110 226 210 234 222 24 36 17 82 -22 165 -34 70 -40 108 -18 108
15 0 113 -209 113 -240 0 -16 5 -32 10 -35 6 -3 10 0 10 7 0 7 38 -51 84 -129
365 -617 841 -1120 1425 -1508 621 -411 1279 -651 2035 -741 180 -22 666 -30
853 -15 726 59 1412 277 2011 638 897 539 1583 1362 1947 2333 119 316 215
707 256 1033 l12 99 31 -6 c17 -3 47 -1 66 3 19 5 41 9 49 10 7 1 134 -43 282
-96z m-7835 -234 l42 -141 -45 -127 c-25 -69 -55 -164 -67 -211 l-23 -85 -18
35 c-10 19 -40 86 -66 149 l-47 114 65 156 c36 86 74 180 85 209 12 29 23 50
26 47 3 -3 25 -69 48 -146z m688 -214 c67 -136 185 -321 280 -439 31 -38 56
-72 56 -75 0 -3 -46 -27 -102 -54 -80 -37 -104 -45 -115 -35 -8 6 -43 49 -78
96 -56 76 -62 88 -58 121 5 34 2 40 -41 75 -25 20 -46 34 -46 29 0 -16 -35 44
-96 164 l-62 123 48 138 c79 225 65 214 111 92 22 -58 68 -163 103 -235z
m3750 216 c-74 -137 -251 -363 -350 -445 -41 -35 -63 -43 -254 -92 -236 -60
-584 -160 -800 -229 -215 -70 -480 -166 -480 -175 0 -13 207 -23 345 -17 400
19 773 161 1089 415 55 44 82 58 140 73 181 46 759 180 768 177 13 -5 -82
-158 -180 -288 -319 -422 -786 -731 -1302 -860 -215 -54 -313 -65 -575 -65
-252 0 -323 7 -523 51 -180 40 -492 151 -492 176 0 14 380 196 563 269 86 35
157 66 157 70 0 4 -25 10 -55 14 -158 19 -417 109 -588 204 -115 65 -280 182
-270 192 12 12 402 121 691 193 472 118 939 212 1567 316 231 38 445 73 475
78 30 5 68 10 83 11 l28 1 -37 -69z m2106 -112 c-134 -532 -380 -1026 -728
-1464 -127 -159 -435 -467 -596 -594 -802 -636 -1784 -922 -2804 -815 -682 71
-1339 331 -1896 752 -107 81 -259 209 -264 223 -2 5 27 6 64 2 67 -6 70 -8
172 -90 345 -277 754 -498 1179 -637 1021 -332 2141 -209 3063 337 844 501
1464 1320 1710 2261 22 82 40 149 42 150 2 1 21 7 43 12 28 6 41 6 43 -2 2 -6
-11 -67 -28 -135z m-5385 122 c3 -10 34 -62 69 -115 35 -53 58 -96 52 -96 -31
0 -89 24 -117 47 -58 49 -92 165 -51 176 33 9 41 7 47 -12z m5889 -113 c-8
-35 -19 -79 -24 -98 -19 -70 -16 -75 79 -140 49 -33 92 -64 95 -69 3 -5 -45
-12 -110 -16 l-116 -7 -13 -32 c-7 -17 -23 -68 -36 -113 -12 -46 -25 -83 -29
-83 -3 0 -25 47 -49 105 l-43 104 -121 3 -121 3 87 75 c100 85 96 69 44 213
-19 53 -34 97 -32 97 1 0 47 -27 101 -60 54 -33 103 -60 109 -60 5 1 48 32 95
70 47 38 88 69 92 69 3 1 0 -27 -8 -61z m-6506 -403 l31 -49 -31 -59 c-32 -59
-122 -151 -142 -144 -17 5 -96 138 -96 162 0 11 23 93 51 182 l52 162 52 -102
c28 -56 66 -124 83 -152z m-744 91 c21 -49 49 -112 63 -140 25 -48 27 -59 27
-201 1 -136 3 -155 25 -202 27 -60 82 -115 133 -132 19 -6 59 -12 88 -14 45
-2 59 -7 75 -27 49 -61 53 -51 -46 -135 -50 -43 -94 -74 -97 -68 -4 5 -28 36
-53 69 -106 138 -224 325 -320 511 l-68 131 58 134 c32 73 61 142 65 152 9 25
8 26 50 -78z m542 -328 c16 -32 9 -35 -24 -12 -15 10 -22 25 -22 47 1 31 1 31
16 12 9 -11 22 -32 30 -47z m392 -39 l51 -67 -112 -65 c-103 -59 -113 -63
-129 -49 -24 20 -24 22 18 83 33 48 67 115 88 173 8 23 7 24 84 -75z m-1113
-314 c68 -114 155 -242 239 -354 l25 -33 -26 -40 c-14 -21 -30 -35 -34 -31
-51 56 -241 338 -319 476 l-33 58 34 29 c19 15 34 27 35 27 1 -1 36 -60 79
-132z m895 111 c9 -12 4 -19 -29 -41 -23 -14 -76 -50 -118 -80 -42 -30 -80
-55 -84 -55 -4 0 -17 13 -28 29 l-21 29 68 21 c40 13 93 41 127 67 67 49 68
50 85 30z m-2960 -51 c11 -29 -1 -99 -24 -144 -24 -44 -118 -121 -149 -121 -3
0 -8 19 -11 43 -8 46 -19 64 -54 89 l-23 16 31 36 c35 39 159 106 197 106 16
0 27 -8 33 -25z m9028 -121 c58 25 108 44 110 41 2 -2 -21 -50 -51 -107 l-55
-103 78 -90 c43 -49 77 -91 75 -93 -1 -2 -53 6 -115 18 -74 14 -116 18 -123
11 -5 -5 -35 -53 -67 -106 -66 -110 -58 -116 -81 61 l-11 90 -122 29 -121 28
114 54 113 54 -5 42 c-4 23 -9 78 -12 122 l-6 80 86 -88 86 -88 107 45z
m-7208 -96 l115 -56 -40 -10 c-22 -6 -73 -19 -114 -29 -41 -11 -78 -25 -82
-33 -4 -8 -14 -64 -21 -125 l-13 -110 -63 103 c-44 70 -70 102 -83 102 -10 0
-65 -9 -121 -20 -57 -11 -104 -20 -106 -20 -1 0 32 40 74 90 85 100 127 130
182 130 21 0 62 9 92 20 30 10 57 18 60 17 3 -2 57 -28 120 -59z m797 -218
c103 -120 268 -282 393 -386 83 -69 236 -185 267 -203 13 -7 12 -14 -12 -55
-15 -25 -29 -46 -32 -46 -3 0 -28 20 -56 46 -28 25 -87 63 -131 84 -276 132
-675 78 -1031 -140 -36 -22 -65 -36 -65 -31 0 18 64 161 115 259 60 113 107
186 198 306 64 85 246 278 257 274 4 -2 47 -50 97 -108z m5610 -520 c25 -47
47 -86 48 -88 2 -2 51 4 109 12 59 9 114 16 123 16 10 0 -15 -32 -65 -84 -45
-46 -82 -90 -82 -97 0 -8 22 -60 50 -116 l49 -103 -32 14 c-18 8 -67 31 -110
51 l-78 38 -37 -34 c-20 -19 -61 -56 -89 -84 -36 -33 -53 -44 -53 -33 0 17 17
153 25 200 4 25 -2 30 -106 85 l-110 58 118 23 c65 13 121 29 124 34 4 6 15
59 25 120 21 126 16 126 91 -12z m-5718 -89 l86 -16 -105 -59 c-58 -32 -106
-60 -108 -61 -2 -2 4 -53 13 -115 9 -62 14 -114 11 -117 -3 -3 -43 31 -90 76
l-84 82 -111 -55 c-61 -31 -111 -54 -111 -52 0 2 23 51 50 109 28 58 49 111
48 118 -2 7 32 24 88 44 50 17 104 41 120 53 32 23 33 23 193 -7z m703 -625
c13 1 68 4 123 8 l100 6 -88 -84 -88 -84 45 -108 c25 -59 44 -109 42 -112 -2
-2 -51 21 -108 52 l-103 55 -90 -79 c-49 -43 -91 -77 -93 -75 -2 1 7 55 19
119 12 64 20 118 18 120 -2 2 -48 29 -102 61 -54 32 -95 60 -92 63 3 3 56 13
117 21 l112 16 22 90 c12 50 25 104 29 120 7 28 10 24 61 -80 46 -93 57 -110
76 -109z m4187 58 c15 -60 33 -111 41 -115 8 -4 65 -14 125 -21 l110 -13 -65
-39 c-36 -22 -84 -52 -106 -67 l-41 -28 23 -113 c13 -62 23 -117 24 -121 0 -4
-43 29 -95 73 l-95 82 -57 -33 c-32 -17 -82 -45 -110 -61 l-53 -29 45 108 c25
59 45 113 45 120 0 6 -39 48 -87 93 l-88 81 100 -6 c55 -3 110 -8 123 -11 21
-4 28 6 74 106 29 60 54 108 56 106 2 -3 16 -53 31 -112z m-3278 -423 l47 -55
113 42 c62 22 114 40 116 39 1 -1 -25 -45 -57 -97 -33 -52 -59 -101 -60 -109
0 -7 28 -50 63 -95 35 -44 66 -86 70 -92 4 -6 -44 1 -111 17 -64 15 -120 25
-123 21 -4 -4 -35 -50 -70 -102 l-64 -95 -8 95 c-13 160 -6 149 -130 183 -59
17 -107 34 -107 38 0 4 47 26 105 50 l105 43 0 121 1 120 32 -35 c17 -19 53
-60 78 -89z m2317 -13 l-3 -121 113 -46 c81 -33 107 -48 95 -53 -10 -4 -64
-21 -120 -38 l-103 -31 -1 -62 c-1 -34 -4 -89 -8 -122 l-6 -60 -69 100 c-38
55 -69 101 -70 102 -1 1 -53 -11 -116 -27 -63 -16 -116 -28 -117 -26 -2 2 28
45 68 95 39 51 68 98 65 106 -3 8 -32 57 -65 109 l-60 95 111 -39 c61 -22 116
-40 122 -39 6 0 44 40 85 90 41 49 76 89 78 89 3 0 3 -55 1 -122z m-1044 -165
c-25 -87 -31 -120 -23 -130 6 -7 49 -41 96 -76 l84 -62 -113 -8 c-62 -4 -118
-9 -124 -11 -7 -3 -29 -56 -50 -118 -20 -62 -39 -108 -41 -103 -2 6 -20 57
-41 115 l-38 105 -110 6 c-60 4 -116 7 -123 8 -8 0 16 25 54 54 38 28 81 63
96 77 l28 25 -34 109 c-19 61 -33 112 -31 114 2 2 48 -27 101 -64 l97 -67 101
71 c56 39 103 71 103 72 1 0 -14 -52 -32 -117z"/>
<path d="M4695 9619 c-83 -50 -151 -92 -152 -93 -1 -1 69 -117 156 -259 155
-254 158 -259 153 -307 l-4 -47 44 -17 c41 -16 50 -27 137 -168 l92 -152 -16
-35 c-20 -45 -76 -77 -126 -73 -35 3 -40 8 -94 98 -32 51 -61 94 -66 94 -7 0
-296 -174 -307 -185 -2 -1 35 -66 82 -142 l86 -140 77 -7 c42 -3 128 -6 192
-6 l116 1 135 83 134 84 78 167 78 167 -117 191 c-114 186 -118 193 -115 243
l3 51 -46 19 c-44 18 -50 27 -198 268 -84 137 -157 251 -162 253 -6 2 -78 -38
-160 -88z"/>
<path d="M4533 8920 c-54 -43 -136 -115 -183 -159 -70 -65 -82 -81 -67 -86 13
-5 39 13 103 71 48 44 124 110 170 148 51 42 84 76 84 87 0 11 -2 19 -5 19 -2
0 -48 -36 -102 -80z"/>
<path d="M5937 8324 c-4 -4 -7 -27 -7 -51 0 -43 0 -43 36 -43 l35 0 -3 48 c-3
42 -6 47 -28 50 -14 2 -29 0 -33 -4z"/>
<path d="M6770 8181 c0 -150 0 -151 23 -151 46 0 48 8 45 156 l-3 139 -32 3
-33 3 0 -150z"/>
<path d="M7616 7085 c-77 -27 -142 -112 -181 -238 -67 -210 -92 -420 -61 -502
19 -50 39 -65 84 -65 38 0 117 53 157 105 30 40 31 46 70 364 39 316 39 323
20 337 -23 17 -39 17 -89 -1z"/>
<path d="M8400 4058 c-220 -171 -475 -322 -725 -427 -77 -33 -153 -63 -168
-67 -27 -6 -46 -29 -34 -40 16 -16 322 114 502 213 192 106 401 249 545 372
35 30 35 30 10 31 -17 0 -61 -27 -130 -82z"/>
</g>
</svg>
