<?xml version="1.0" standalone="no"?>
<!DOCTYPE svg PUBLIC "-//W3C//DTD SVG 20010904//EN"
 "http://www.w3.org/TR/2001/REC-SVG-20010904/DTD/svg10.dtd">
<svg version="1.0" xmlns="http://www.w3.org/2000/svg"
 width="2128.000000pt" height="2128.000000pt" viewBox="0 0 2128.000000 2128.000000"
 preserveAspectRatio="xMidYMid meet">
<metadata>
Created by potrace 1.11, written by Peter Selinger 2001-2013
</metadata>
<g transform="translate(0.000000,2128.000000) scale(0.100000,-0.100000)"
fill="#000000" stroke="none">
<path d="M0 10635 l0 -10175 10640 0 10640 0 0 10175 0 10175 -10640 0 -10640
0 0 -10175z m11178 10048 c11 -49 73 -332 138 -631 88 -400 123 -543 134 -547
8 -2 44 -5 80 -6 l64 -3 218 600 c119 329 219 603 221 608 2 7 433 -40 444
-49 2 -1 28 -291 58 -645 30 -354 57 -645 59 -647 6 -7 148 -35 152 -30 2 2
137 259 299 572 162 313 297 570 299 572 3 3 423 -105 433 -111 1 -1 -12 -278
-28 -616 -15 -338 -29 -632 -29 -652 l0 -37 70 -22 c43 -14 73 -19 79 -13 6 7
700 998 732 1047 6 8 394 -144 412 -162 6 -6 -190 -1144 -218 -1267 -4 -16 7
-26 60 -52 36 -18 69 -32 74 -32 4 0 205 216 445 479 l437 479 172 -100 c94
-55 182 -106 193 -113 21 -14 20 -18 -177 -637 -140 -442 -194 -625 -186 -630
7 -3 34 -22 61 -42 41 -29 53 -33 65 -23 8 7 233 196 500 420 267 224 491 405
498 403 23 -9 343 -257 343 -266 0 -5 -124 -273 -275 -595 -151 -322 -275
-589 -275 -593 0 -4 25 -29 55 -55 42 -37 59 -46 69 -38 7 6 255 166 552 356
l539 345 158 -159 159 -158 -355 -554 c-291 -455 -352 -557 -343 -570 6 -9 28
-34 48 -57 l37 -41 553 261 c304 143 572 268 595 278 l41 18 128 -166 c70 -92
131 -172 135 -178 5 -6 -156 -206 -415 -514 l-423 -503 36 -58 c20 -32 42 -58
50 -59 7 0 290 88 629 195 338 108 619 192 623 188 7 -8 219 -373 219 -378 0
-1 -218 -201 -485 -445 -267 -243 -485 -444 -485 -446 0 -2 14 -32 31 -67 l31
-63 352 63 c778 140 919 164 933 161 16 -3 185 -399 174 -410 -3 -3 -228 -161
-499 -350 l-493 -345 -68 67 c-54 54 -76 68 -108 73 -23 4 -62 16 -88 27 -49
21 -63 20 -170 -15 -18 -5 -26 8 -74 127 -357 879 -871 1709 -1513 2444 -158
181 -523 549 -713 719 -878 788 -1890 1380 -2990 1752 -698 235 -1391 375
-2165 435 -217 17 -994 17 -1195 0 -554 -46 -984 -113 -1434 -223 -2970 -721
-5332 -2960 -6217 -5893 -29 -99 -51 -182 -49 -185 3 -2 109 4 237 15 l231 19
66 227 c36 125 68 224 72 220 3 -4 44 -97 89 -207 46 -110 88 -205 94 -211 8
-8 74 -9 241 -3 126 4 230 7 232 5 3 -2 -304 -271 -344 -301 -11 -8 3 -54 67
-230 44 -121 80 -223 80 -227 0 -3 -92 50 -204 118 l-204 125 -187 -146 c-103
-81 -188 -145 -189 -143 -2 2 21 106 51 232 30 126 50 232 45 235 -4 3 -91 62
-193 131 -101 69 -186 125 -189 125 -8 0 -86 -316 -125 -506 -71 -347 -121
-682 -150 -1019 -15 -185 -39 -670 -32 -676 2 -2 102 31 223 75 l219 79 7 213
c4 118 9 225 10 238 3 23 66 -52 283 -336 8 -10 55 1 235 56 124 37 227 67
228 65 2 -1 -53 -86 -122 -187 -69 -102 -128 -191 -131 -199 -3 -7 55 -100
129 -206 74 -105 131 -192 126 -192 -5 0 -109 29 -231 65 -193 56 -223 63
-233 50 -122 -166 -273 -364 -277 -364 -4 -1 -7 54 -8 121 -1 68 -4 176 -7
240 l-7 117 -220 75 c-121 42 -222 74 -225 71 -7 -7 15 -598 28 -750 41 -475
121 -963 221 -1357 49 -194 58 -258 65 -483 l6 -170 -74 -18 c-40 -9 -78 -18
-84 -20 -7 -2 -19 -9 -27 -16 -11 -9 -160 -19 -529 -36 -681 -32 -613 -35
-663 20 -83 89 -139 237 -133 349 l3 51 546 283 546 283 -16 82 c-17 81 -17
82 -51 90 -19 4 -302 30 -629 57 -327 27 -596 52 -599 54 -6 6 -51 342 -52
381 0 63 2 64 610 284 l573 208 -2 79 c-1 43 -5 82 -7 86 -7 10 -10 11 -639
148 -308 67 -570 125 -583 130 -22 10 -22 11 -22 229 l0 219 72 17 c40 9 215
47 388 85 576 126 775 171 782 178 3 4 8 43 10 87 l3 80 -595 216 c-512 186
-595 219 -593 235 13 107 56 420 58 423 2 1 286 27 631 57 345 30 628 55 630
57 9 9 34 161 27 167 -4 4 -253 134 -553 290 -300 155 -549 286 -554 290 -6 7
98 431 107 436 1 0 270 -12 597 -28 327 -15 612 -27 634 -25 l38 2 28 78 27
78 -518 362 c-285 199 -518 365 -519 370 0 7 160 398 166 406 2 2 122 -17 266
-43 510 -90 933 -166 960 -172 25 -5 30 0 67 74 l40 79 -470 428 -470 427 22
37 c12 20 59 101 105 181 46 80 87 151 92 157 6 9 161 -36 606 -177 329 -105
603 -190 609 -190 7 0 31 30 55 66 37 56 41 68 30 82 -7 9 -191 228 -408 487
-217 258 -394 473 -393 476 5 15 265 349 271 349 4 0 264 -121 577 -269 l570
-270 58 62 c32 35 56 69 54 77 -3 8 -156 251 -341 540 l-336 525 159 159 159
158 526 -337 c290 -185 535 -339 544 -341 10 -2 41 18 75 49 l58 52 -272 578
c-150 317 -270 579 -268 580 352 269 351 268 367 255 9 -7 230 -192 490 -411
l474 -398 69 45 c38 26 69 48 69 51 0 3 -86 275 -190 604 -104 329 -190 602
-190 607 1 5 87 58 191 118 l191 109 33 -34 c18 -19 200 -218 405 -444 205
-225 385 -423 400 -439 l28 -29 77 36 c60 29 75 40 71 54 -5 19 -212 1179
-218 1222 -3 23 10 30 197 108 110 46 203 83 207 83 4 0 170 -233 369 -517
199 -285 364 -521 368 -525 4 -5 42 4 85 18 l78 26 -6 92 c-10 141 -57 1189
-54 1191 7 4 431 115 433 113 1 -2 134 -257 295 -568 161 -311 294 -567 296
-569 7 -8 156 23 160 33 2 6 28 294 58 639 30 346 56 630 58 633 9 8 433 62
440 55 3 -3 104 -277 224 -609 l218 -603 76 6 c41 4 78 10 81 14 3 3 63 269
133 591 70 322 132 602 137 623 l10 37 223 0 224 0 20 -87z m-189 -1666 c35
-100 72 -201 82 -224 l18 -43 236 0 c129 0 235 -3 235 -8 0 -4 -9 -13 -19 -19
-53 -33 -346 -267 -349 -278 -2 -8 26 -110 62 -228 36 -119 66 -218 66 -222 0
-3 -89 55 -198 129 l-197 134 -194 -135 c-106 -74 -194 -133 -196 -131 -2 2
26 102 61 223 35 121 62 225 60 230 -2 6 -85 72 -185 146 -99 74 -180 137
-181 142 0 4 39 8 88 8 48 1 154 4 236 8 l149 6 76 222 c42 123 78 223 81 223
3 0 34 -82 69 -183z m-2020 -470 c4 -4 111 17 236 48 125 30 229 54 230 53 1
-2 -63 -88 -141 -191 l-144 -188 125 -200 c69 -111 125 -203 125 -205 0 -2
-30 7 -67 21 -38 13 -139 49 -225 79 l-158 55 -136 -162 c-75 -89 -146 -171
-156 -182 -20 -20 -20 -19 -17 219 l4 240 -212 86 c-117 48 -215 89 -218 91
-2 3 91 34 208 69 116 35 219 67 228 71 12 6 17 45 28 206 6 109 15 215 18
235 l6 38 129 -188 c71 -103 133 -191 137 -195z m4190 106 c10 -122 21 -226
25 -231 3 -5 104 -37 226 -72 121 -35 220 -67 220 -71 0 -5 -5 -9 -10 -9 -6 0
-103 -39 -216 -87 l-206 -87 7 -240 c4 -150 3 -237 -2 -231 -6 6 -76 88 -158
183 -108 126 -153 171 -164 167 -86 -34 -425 -154 -427 -152 -2 2 50 93 117
202 66 108 118 203 116 209 -3 6 -68 92 -145 191 -78 99 -140 180 -139 181 1
1 103 -22 227 -52 124 -29 228 -53 232 -54 4 0 67 88 140 196 73 108 134 192
135 188 2 -5 11 -109 22 -231z m-6336 -730 c159 -134 170 -142 190 -129 43 28
390 216 393 214 1 -2 -38 -101 -87 -221 l-89 -217 78 -73 c42 -40 120 -113
173 -163 52 -49 95 -90 94 -92 -1 -1 -106 5 -234 15 -143 10 -235 13 -241 7
-5 -5 -50 -97 -100 -204 -50 -107 -95 -199 -100 -203 -4 -5 -29 78 -54 185
-26 106 -51 209 -56 229 l-10 36 -235 29 c-129 15 -235 31 -235 35 0 4 7 9 15
13 20 7 357 216 373 231 11 10 6 50 -28 226 -22 118 -44 223 -47 234 -7 24
-23 36 200 -152z m8337 -133 c-23 -123 -39 -229 -37 -235 3 -6 93 -64 202
-130 169 -102 194 -120 174 -126 -13 -4 -119 -20 -236 -35 l-212 -28 -24 -105
c-14 -58 -38 -161 -53 -228 -16 -68 -31 -123 -34 -123 -4 0 -51 92 -105 206
-54 113 -102 207 -106 209 -4 3 -110 -4 -235 -15 -125 -10 -229 -18 -231 -16
-3 3 69 74 269 266 l67 65 -90 213 c-50 118 -89 216 -86 218 2 3 80 -36 173
-87 93 -50 185 -99 205 -110 l37 -18 178 154 c98 85 180 153 181 151 2 -1 -15
-103 -37 -226z m-3945 60 c1338 -66 2571 -474 3675 -1214 1053 -707 1915
-1700 2465 -2839 76 -159 196 -433 240 -551 l18 -50 -24 -15 c-13 -9 -43 -33
-66 -54 -23 -22 -47 -37 -54 -35 -6 2 -37 69 -69 148 -291 734 -692 1398
-1205 1995 -147 171 -456 488 -625 639 -693 622 -1485 1095 -2347 1400 -1237
439 -2587 519 -3878 231 -2565 -572 -4614 -2567 -5256 -5118 -75 -301 -152
-734 -174 -982 -11 -128 -12 -133 -46 -140 -17 -4 -59 -26 -95 -50 l-65 -44 5
52 c3 29 11 104 17 167 29 314 100 718 184 1050 475 1886 1721 3518 3423 4484
1173 666 2536 992 3877 926z m-80 -510 c674 -29 1255 -136 1872 -344 1515
-512 2814 -1580 3613 -2971 218 -379 444 -889 560 -1263 18 -57 35 -100 39
-95 4 4 37 44 74 89 133 162 284 266 490 336 75 25 109 31 182 32 83 1 96 -2
157 -32 36 -18 82 -50 102 -72 108 -120 150 -328 111 -551 -59 -341 -264 -588
-461 -556 -52 9 -90 41 -121 105 -25 52 -28 67 -27 162 0 171 52 313 153 422
56 61 141 110 214 123 36 7 38 9 32 39 -11 49 -53 114 -85 131 -63 32 -163 12
-246 -51 -52 -40 -148 -193 -193 -308 -134 -342 -166 -789 -71 -976 93 -182
311 -219 565 -96 235 115 447 367 490 582 53 267 168 473 304 547 90 49 167
47 227 -5 92 -81 113 -237 58 -427 -53 -183 -199 -333 -341 -349 -40 -4 -42
-6 -36 -31 17 -73 69 -136 123 -151 80 -22 217 42 301 139 83 97 170 309 205
498 9 49 18 160 21 249 7 195 -9 289 -60 356 -75 97 -164 103 -331 20 -132
-66 -144 -68 -199 -44 -121 54 -170 234 -118 434 28 109 67 183 133 253 68 73
146 115 229 122 73 7 101 0 143 -38 93 -81 104 -327 20 -478 -13 -24 -24 -44
-24 -45 0 -2 33 9 73 22 87 30 216 40 296 22 173 -38 303 -180 347 -381 9 -41
18 -76 20 -78 2 -2 24 14 48 37 54 50 141 95 227 117 87 23 257 16 349 -15
291 -98 514 -349 592 -667 29 -119 32 -358 5 -483 -108 -504 -480 -974 -1097
-1387 -119 -79 -211 -138 -255 -163 -687 -386 -1345 -633 -2399 -902 l-129
-33 -34 -130 c-108 -422 -255 -816 -463 -1240 -556 -1135 -1427 -2086 -2515
-2747 -1596 -969 -3547 -1213 -5347 -669 -507 153 -1019 380 -1470 652 -122
73 -284 177 -307 195 -13 11 278 366 293 356 6 -3 54 -34 106 -68 838 -542
1871 -881 2887 -950 101 -6 102 -6 96 15 -3 12 -9 23 -12 26 -4 2 -66 9 -137
15 -1030 85 -1974 403 -2836 957 l-78 50 133 129 c114 112 220 208 279 252 14
11 31 5 116 -47 742 -448 1578 -713 2461 -781 174 -13 628 -13 802 0 430 33
847 112 1244 235 170 53 425 146 425 155 0 3 -6 14 -13 23 -11 16 -22 14 -147
-33 -419 -158 -868 -262 -1365 -317 -228 -25 -862 -25 -1090 0 -704 77 -1296
249 -1900 552 -241 121 -477 254 -469 266 5 9 251 192 351 262 l82 57 53 -31
c110 -66 417 -211 587 -278 642 -253 1257 -363 1956 -348 365 8 648 41 990
118 1150 259 2175 924 2892 1877 80 106 84 114 66 127 -10 8 -20 14 -23 14 -3
0 -29 -34 -59 -75 -180 -255 -576 -673 -838 -887 -642 -523 -1385 -876 -2173
-1032 -1011 -199 -2041 -84 -2979 332 -147 65 -421 204 -421 213 0 6 132 88
308 192 l133 78 48 -24 c26 -14 111 -52 187 -84 886 -379 1896 -459 2839 -226
1139 281 2126 1004 2746 2009 47 77 98 164 113 192 17 34 34 54 49 58 366 84
1170 265 1177 265 21 0 -142 -385 -267 -634 -89 -176 -92 -186 -47 -186 28 0
297 586 377 821 3 11 86 34 303 84 165 37 307 70 318 73 16 4 17 1 11 -29 -16
-73 -120 -373 -197 -567 -78 -196 -81 -205 -63 -219 17 -12 21 -10 34 14 53
103 262 679 285 789 l7 30 225 54 c125 30 228 59 229 65 2 5 19 60 38 120 54
169 132 575 110 575 -4 0 -104 -21 -221 -46 -117 -26 -215 -45 -217 -42 -2 2
4 71 15 153 46 367 60 751 40 1119 -7 130 -9 240 -5 244 4 4 15 -4 23 -18 9
-14 41 -51 71 -83 65 -69 180 -130 284 -152 38 -7 71 -16 74 -18 2 -3 7 -90
10 -194 6 -204 -8 -521 -33 -781 -9 -90 -14 -166 -11 -168 13 -14 890 219
1272 337 485 150 711 234 942 348 518 258 929 631 1108 1006 85 178 119 319
119 485 -1 233 -84 409 -247 518 -99 66 -169 87 -287 87 -86 0 -101 -3 -162
-32 -134 -63 -213 -173 -252 -349 -53 -241 -148 -417 -304 -566 -129 -123
-269 -203 -479 -275 -96 -33 -120 -37 -208 -38 -86 0 -106 3 -145 24 -74 38
-123 85 -160 149 -19 34 -37 61 -40 61 -3 0 -21 -25 -40 -56 -80 -129 -280
-297 -464 -390 -162 -81 -382 -148 -527 -159 l-86 -7 -12 159 c-23 308 -61
587 -117 864 -26 129 -100 429 -132 535 l-18 60 -29 -45 c-42 -66 -119 -234
-148 -320 -28 -84 -60 -218 -80 -330 l-13 -75 -13 60 c-61 295 -159 642 -252
894 -35 95 -46 137 -38 140 30 10 101 88 125 138 52 106 28 248 -57 331 -59
58 -124 86 -204 86 -38 1 -82 -2 -96 -6 -24 -7 -28 -3 -74 85 -185 351 -450
746 -715 1062 -134 160 -360 404 -462 497 -48 44 -88 84 -88 89 0 5 41 75 91
155 50 80 90 147 88 149 -10 10 -1481 925 -1487 925 -4 0 -38 -50 -76 -110
-37 -61 -71 -112 -75 -114 -3 -2 -68 25 -143 59 -589 272 -1201 443 -1871 525
l-87 11 -158 104 -158 104 -305 7 -304 7 -179 -117 c-121 -78 -188 -116 -207
-116 -46 0 -302 -38 -474 -71 -331 -62 -811 -201 -1084 -312 l-84 -34 26 -18
c26 -16 29 -16 130 24 240 94 566 191 856 256 169 37 525 98 550 93 8 -2 -13
-21 -52 -47 l-67 -43 0 -373 0 -373 -55 -70 c-30 -39 -55 -73 -55 -77 0 -3 25
-36 54 -73 l55 -68 -6 -424 -6 -425 289 -193 289 -192 307 0 307 0 288 188
288 188 3 430 4 429 50 68 50 67 -51 69 -51 68 0 107 c0 98 1 106 19 106 36 0
323 -60 486 -101 196 -50 460 -137 660 -217 185 -74 325 -138 324 -149 0 -4
-21 -39 -47 -78 -46 -69 -48 -70 -130 -100 l-84 -30 6 -40 c17 -121 17 -140 3
-159 -11 -16 -17 -17 -36 -7 -22 12 -22 12 -7 -12 16 -24 10 -34 -289 -513
-239 -383 -302 -491 -293 -500 20 -18 1479 -926 1482 -922 2 1 58 92 126 201
105 169 121 200 109 212 -8 7 -207 133 -444 280 -236 147 -436 272 -443 279
-9 9 23 67 153 276 90 145 169 268 173 272 5 5 119 -60 258 -146 219 -136 267
-171 400 -290 471 -420 863 -938 1145 -1513 74 -152 81 -162 99 -151 11 7 20
15 20 18 0 15 -166 341 -234 458 -262 456 -623 898 -1011 1241 -66 58 -119
109 -117 114 1 4 52 87 113 184 60 97 106 179 102 183 -4 4 -122 78 -260 164
-280 174 -262 155 -211 228 l19 27 112 -76 c310 -212 530 -395 807 -673 349
-348 594 -661 841 -1072 138 -231 322 -608 413 -850 l25 -67 -58 -32 -57 -32
-22 -110 c-12 -61 -20 -112 -18 -115 2 -2 21 1 43 7 117 33 183 -14 183 -128
0 -57 -35 -353 -85 -715 -31 -225 -38 -257 -68 -321 -85 -179 -271 -295 -361
-224 -36 28 -35 48 25 517 59 465 70 626 45 722 -40 156 -147 240 -305 240
-70 0 -189 -28 -250 -60 l-38 -19 -33 82 c-117 291 -319 653 -514 922 -109
151 -158 208 -167 194 -17 -27 -8 -46 77 -159 215 -286 390 -591 539 -936 47
-109 53 -129 40 -137 -62 -34 -213 -187 -245 -248 -10 -18 -13 -16 -43 28 -65
95 -190 125 -360 84 -105 -25 -241 -85 -234 -103 2 -7 19 -58 37 -113 27 -83
38 -103 64 -120 43 -28 59 -81 50 -167 -4 -37 -9 -68 -13 -68 -3 0 -19 55 -36
123 l-30 122 -37 3 c-21 2 -53 -1 -73 -7 -42 -11 -41 -15 -19 113 9 50 23 98
30 107 19 22 19 25 -27 135 -177 427 -434 809 -764 1139 -915 915 -2237 1252
-3490 888 -428 -124 -883 -365 -1230 -652 -720 -595 -1165 -1417 -1271 -2346
-20 -177 -22 -544 -5 -710 12 -116 43 -315 61 -403 l12 -52 88 93 c134 141
278 233 460 293 69 22 104 28 185 28 90 1 106 -2 157 -27 151 -74 228 -218
228 -427 0 -213 -78 -403 -229 -563 -69 -73 -126 -115 -217 -161 -75 -37 -327
-112 -344 -101 -5 3 -29 43 -52 88 l-43 82 30 1 c17 0 70 13 118 28 155 48
214 126 270 360 26 113 31 150 31 271 1 153 -10 195 -58 216 -32 15 -86 -11
-127 -60 -41 -49 -112 -196 -149 -311 -39 -119 -96 -347 -105 -423 -4 -31 -10
-57 -14 -57 -18 0 -167 416 -207 582 -11 43 -21 78 -24 78 -3 0 -23 -28 -45
-62 -136 -211 -223 -481 -256 -795 -54 -517 266 -868 718 -789 93 16 247 61
329 97 l45 19 -86 102 c-46 57 -83 107 -82 112 2 5 30 15 63 22 137 28 266
100 394 220 100 95 161 176 215 284 l41 86 -10 84 c-25 217 57 609 180 853
110 221 269 398 454 507 139 82 328 137 432 126 116 -12 224 -89 281 -202 153
-302 -4 -863 -277 -990 -126 -59 -239 -6 -278 130 -31 111 5 323 75 446 60
106 180 196 285 216 33 6 34 8 27 43 -22 120 -135 175 -252 122 -214 -98 -393
-569 -393 -1035 0 -205 46 -334 145 -405 216 -155 627 13 856 350 79 117 96
167 119 359 12 96 61 501 111 900 54 440 87 739 84 762 -8 44 -43 85 -81 94
-16 4 -53 2 -83 -4 -30 -7 -56 -10 -59 -8 -2 3 1 30 7 60 6 31 16 80 21 110
l11 54 89 41 c160 74 339 101 443 65 59 -20 117 -84 141 -156 31 -93 31 -237
2 -473 -15 -115 -29 -221 -32 -234 -4 -20 6 -14 58 33 226 205 504 260 656
130 58 -50 100 -139 113 -244 12 -100 12 -100 -57 -628 -30 -226 -54 -432 -54
-457 0 -126 141 -135 272 -17 51 46 111 136 138 208 15 42 21 86 24 192 10
363 120 741 287 988 106 157 280 314 434 392 92 46 218 82 285 82 64 0 140
-21 180 -50 l25 -19 10 52 10 51 254 68 c140 37 257 66 260 63 5 -6 0 -48
-114 -914 -36 -272 -65 -523 -65 -557 0 -56 3 -65 26 -83 105 -83 323 83 393
299 6 19 33 208 61 419 27 211 51 385 53 387 6 6 35 -170 51 -306 23 -197 30
-437 17 -620 -13 -180 -38 -381 -50 -392 -12 -13 -71 45 -95 95 l-23 48 -35
-54 c-48 -71 -139 -169 -207 -221 -249 -191 -537 -205 -647 -33 -16 26 -31 46
-34 47 -3 0 -14 -15 -25 -32 -32 -56 -206 -227 -278 -275 -139 -92 -312 -126
-436 -83 -108 36 -178 96 -243 209 l-26 43 -21 -46 c-33 -75 -123 -206 -187
-272 -67 -69 -166 -145 -236 -180 -118 -60 -286 -81 -383 -47 -86 29 -158 121
-186 240 -23 95 -13 235 49 693 33 245 58 457 55 472 -11 56 -63 86 -127 74
-52 -10 -152 -82 -196 -140 l-40 -52 -65 -507 c-36 -278 -65 -534 -65 -569 0
-118 51 -158 170 -134 60 13 61 12 56 -8 -2 -12 -13 -63 -23 -114 l-17 -94
-68 -34 c-86 -44 -217 -81 -311 -90 -142 -13 -242 42 -284 156 l-19 51 -28
-40 c-43 -61 -183 -191 -267 -248 -143 -97 -348 -187 -534 -234 -117 -29 -282
-32 -370 -5 -124 37 -228 109 -292 200 -21 31 -40 55 -43 55 -3 1 -19 -30 -37
-67 -84 -179 -303 -383 -520 -487 -35 -16 -63 -34 -63 -40 0 -12 277 -288 347
-346 l43 -36 -308 -102 c-169 -56 -397 -138 -506 -181 -192 -77 -200 -79 -219
-62 -11 9 -66 74 -122 145 -333 414 -585 876 -751 1371 l-56 168 82 236 c242
697 467 1353 639 1867 l122 359 -45 44 -44 45 -393 -106 c-216 -58 -395 -105
-396 -103 -10 10 110 384 179 556 160 397 407 817 670 1140 32 39 34 52 14 69
-12 10 -24 -1 -69 -56 -367 -456 -665 -1037 -815 -1584 l-40 -144 -116 -31
c-64 -18 -129 -40 -144 -50 -55 -36 -159 -153 -214 -244 -32 -51 -58 -87 -58
-79 0 31 43 272 71 402 79 362 231 793 396 1121 24 48 43 89 41 91 -2 2 -15 1
-29 -2 -23 -4 -37 -25 -97 -151 -217 -451 -368 -964 -438 -1486 -17 -126 -19
-134 -97 -300 -78 -168 -266 -603 -363 -841 l-49 -120 -6 40 c-34 197 -36 833
-4 1130 41 385 119 764 229 1110 l44 136 -27 -3 c-24 -3 -29 -13 -64 -118
-122 -365 -215 -853 -248 -1297 -15 -216 -7 -747 15 -953 l17 -155 -188 -462
c-103 -255 -191 -463 -194 -463 -3 0 -13 33 -23 73 -84 345 -121 537 -156 809
l-20 157 50 163 c114 367 154 585 148 801 -4 153 -22 219 -72 266 -21 20 -27
21 -70 10 -26 -6 -49 -10 -51 -8 -2 2 5 71 16 153 85 669 270 1288 564 1891
313 643 704 1187 1216 1691 223 219 382 355 637 547 90 69 102 81 102 108 l0
30 -32 -22 c-384 -267 -830 -681 -1158 -1074 -777 -930 -1267 -2083 -1395
-3282 -8 -73 22 -58 -267 -134 -108 -28 -202 -55 -210 -60 -22 -14 -18 -851 5
-1079 40 -395 149 -1003 170 -950 30 75 297 813 297 820 0 6 5 10 10 10 6 0
10 -16 10 -36 0 -122 137 -800 190 -939 9 -23 3 -45 -39 -149 -80 -197 -212
-500 -220 -509 -14 -14 -135 339 -211 615 -24 87 -45 157 -46 155 -2 -2 -53
-141 -113 -309 -157 -439 -418 -1249 -446 -1384 -32 -154 -12 -224 58 -208
178 38 398 342 666 922 47 100 88 179 91 175 4 -5 35 -75 69 -158 93 -224 82
-213 126 -119 60 130 194 442 201 469 3 14 9 25 13 25 4 0 31 -60 60 -132 30
-73 89 -208 132 -301 l77 -167 -10 -68 c-16 -107 -13 -346 6 -432 35 -165 138
-303 260 -349 70 -26 176 -43 243 -39 l51 3 61 -80 c34 -44 60 -82 59 -86 -2
-4 -34 -33 -72 -64 -110 -90 -266 -229 -266 -237 0 -4 44 -61 99 -125 354
-423 792 -827 1231 -1135 65 -45 119 -86 119 -90 1 -3 -26 -49 -60 -101 l-60
-94 -61 63 c-138 144 -344 250 -592 305 -133 30 -439 37 -601 14 -362 -50
-727 -190 -1070 -410 -44 -28 -86 -54 -92 -59 -35 -20 135 372 246 571 199
354 407 629 704 930 l130 131 -105 139 c-256 338 -466 678 -659 1065 l-83 167
-81 -157 c-246 -475 -478 -753 -735 -882 -376 -189 -651 -101 -746 240 -16 54
-19 100 -18 270 0 177 4 225 27 355 67 372 160 676 467 1530 133 369 170 482
215 655 46 180 67 314 68 436 1 90 -2 106 -27 157 -15 31 -31 57 -36 57 -24 0
-157 -282 -275 -580 -111 -281 -199 -531 -405 -1145 -319 -949 -423 -1244
-585 -1655 -320 -811 -563 -1262 -876 -1625 -103 -119 -193 -200 -302 -272
-158 -104 -374 -163 -597 -164 -163 -1 -244 18 -390 88 -106 51 -122 63 -215
157 -145 147 -227 307 -271 532 -25 124 -25 405 -1 529 66 337 227 617 448
780 81 59 151 95 259 131 189 62 308 26 381 -116 18 -35 24 -66 27 -141 5
-117 -12 -191 -70 -309 -55 -109 -181 -241 -275 -289 -77 -38 -179 -63 -224
-55 -97 19 -165 100 -176 210 -3 30 -9 54 -13 54 -11 0 -75 -144 -98 -221 -32
-105 -45 -219 -39 -348 13 -287 143 -539 347 -670 254 -164 566 -118 857 128
183 155 420 495 612 879 225 449 411 942 851 2257 153 457 307 909 343 1005
251 680 443 1048 652 1257 98 97 98 97 272 143 49 12 42 -15 72 275 184 1780
1142 3460 2598 4554 1071 804 2358 1265 3692 1321 262 10 287 10 536 0z
m-5548 -711 c-16 -127 -25 -235 -20 -239 4 -5 94 -54 198 -110 105 -56 194
-106 198 -110 10 -9 19 -7 -243 -56 -107 -20 -200 -42 -206 -50 -6 -7 -28
-112 -49 -233 -21 -122 -41 -221 -44 -221 -3 0 -55 90 -114 200 -60 110 -112
202 -117 205 -4 3 -106 -8 -225 -25 -119 -16 -223 -30 -232 -30 -8 0 45 63
118 141 74 78 147 157 163 176 l29 34 -103 211 c-56 115 -100 211 -98 212 2 2
95 -41 208 -95 113 -54 210 -98 215 -98 6 0 84 71 175 159 91 87 168 159 171
160 3 0 -8 -104 -24 -231z m6283 130 c532 -84 1056 -243 1559 -473 79 -35 145
-67 148 -69 5 -6 -284 -471 -296 -475 -5 -2 -55 18 -112 44 -394 176 -873 325
-1274 397 l-130 24 -3 244 -3 244 -74 49 c-41 27 -75 50 -75 52 0 3 26 0 260
-37z m4490 -159 l168 -159 104 48 c57 27 154 74 216 105 61 31 112 53 112 50
0 -3 -45 -101 -100 -217 l-100 -211 47 -51 c26 -27 102 -105 168 -172 85 -88
114 -123 100 -123 -11 1 -118 13 -239 29 l-218 28 -17 -28 c-9 -14 -59 -108
-111 -208 -52 -99 -97 -180 -100 -181 -3 0 -24 102 -48 228 -24 125 -46 230
-50 234 -4 3 -101 23 -217 43 -115 20 -218 39 -228 43 -13 5 35 36 184 117
111 61 204 116 207 124 4 11 -37 344 -54 434 -3 15 -2 27 1 27 4 0 83 -72 175
-160z m-5339 -48 l54 -38 1 -699 c0 -385 -1 -729 -4 -765 l-4 -65 -60 -37
c-55 -36 -64 -38 -138 -38 -76 0 -81 1 -141 43 l-62 42 7 760 c5 570 10 762
19 767 7 3 30 20 52 37 38 29 45 30 131 31 89 0 92 -1 145 -38z m3996 -1366
l23 29 141 -140 c312 -309 573 -626 811 -985 92 -140 256 -418 317 -538 l29
-58 -29 -20 c-41 -26 -86 -97 -105 -163 -39 -131 30 -277 162 -342 40 -20 65
-24 134 -24 l85 0 58 -159 c113 -309 212 -689 272 -1048 l34 -201 -23 -63
c-45 -124 -138 -232 -239 -279 -60 -29 -87 -31 -127 -10 -56 29 -56 39 6 521
81 623 80 774 -5 891 -46 63 -107 88 -216 88 -54 0 -114 -7 -150 -17 -33 -10
-69 -20 -80 -23 -18 -5 -27 13 -84 157 -387 990 -1139 1920 -2046 2528 -58 39
-105 73 -105 75 0 4 64 109 176 287 l23 37 458 -286 457 -285 23 28z m-10802
-112 c16 -124 34 -231 39 -238 6 -8 103 -35 216 -60 113 -26 213 -50 224 -54
14 -6 -35 -33 -197 -111 l-215 -104 4 -36 c8 -64 34 -391 34 -416 0 -20 -30 7
-162 145 -89 94 -166 170 -170 170 -5 0 -104 -40 -220 -89 -117 -50 -214 -89
-215 -87 -2 1 47 94 107 207 60 112 110 207 110 210 0 3 -67 84 -150 180 -82
95 -150 176 -150 179 0 4 102 -13 228 -35 213 -40 228 -41 242 -25 8 9 65 101
125 203 61 102 112 186 115 186 3 1 18 -101 35 -225z m13504 -104 c93 -153
127 -200 140 -196 16 5 438 86 448 86 5 0 -2 -9 -178 -217 l-127 -149 114
-204 c62 -113 113 -208 114 -211 0 -4 -97 34 -215 82 -118 49 -219 89 -223 89
-5 0 -79 -77 -166 -170 -87 -94 -160 -169 -163 -167 -2 2 3 91 12 198 8 107
15 212 15 234 l0 41 -212 99 c-163 76 -207 101 -192 107 10 4 111 30 224 58
113 28 208 54 212 58 4 4 19 109 34 235 16 125 31 227 34 227 3 0 61 -90 129
-200z m-7459 -953 l95 -62 3 -125 c2 -97 6 -128 19 -142 14 -16 14 -20 -1 -42
-13 -21 -16 -57 -16 -226 l0 -200 -110 0 -110 0 0 185 0 185 -65 0 -65 0 0
-185 0 -185 -110 0 -110 0 0 204 c0 169 -3 206 -15 216 -8 7 -15 18 -15 25 0
7 7 18 15 25 12 10 15 38 15 136 l0 124 97 65 98 65 90 0 90 0 95 -63z m590
-124 c52 -101 97 -183 100 -183 3 0 5 82 5 182 l0 183 108 3 107 3 0 -182 c0
-150 3 -186 16 -209 16 -26 16 -29 0 -51 -13 -20 -16 -54 -16 -221 l0 -198
-98 0 -99 0 -89 172 c-49 95 -90 178 -92 185 -2 7 -8 13 -13 13 -5 0 -9 -78
-9 -185 l0 -185 -105 0 -105 0 0 196 c0 177 -2 199 -19 223 -19 26 -19 27 0
51 17 22 19 44 19 208 l0 183 98 -3 97 -3 95 -182z m984 125 l96 -63 0 -118
c0 -94 4 -125 17 -148 16 -26 16 -29 0 -47 -14 -16 -17 -41 -17 -159 l0 -141
-95 -61 -96 -61 -187 2 -187 3 -3 198 c-2 162 -5 203 -19 223 -14 23 -14 26 1
43 14 15 16 45 16 198 0 99 3 183 7 186 3 4 88 7 188 7 l182 0 97 -62z m-1374
-1135 l0 -78 -135 3 -135 4 0 -109 c0 -82 4 -114 16 -131 14 -20 14 -24 0 -44
-13 -19 -16 -57 -16 -220 l0 -198 -110 0 -110 0 0 195 c0 161 -3 200 -16 220
-14 21 -14 26 1 48 12 19 15 46 13 128 l-3 104 -133 0 -132 0 0 78 0 77 380 0
380 0 0 -77z m380 -88 l0 -165 85 0 85 0 0 165 0 165 110 0 110 0 0 -183 c0
-151 3 -187 16 -205 14 -21 14 -25 0 -47 -13 -20 -16 -58 -16 -220 l0 -195
-110 0 -110 0 0 180 0 180 -85 0 -85 0 0 -180 0 -180 -110 0 -110 0 0 198 c0
165 -3 201 -16 220 -15 21 -15 25 0 41 13 15 16 47 16 204 l0 187 110 0 110 0
0 -165z m1150 88 l0 -78 -172 0 -173 0 -3 -87 -3 -88 101 0 100 0 0 -80 0 -80
-100 0 -100 0 0 -105 0 -105 175 0 175 0 0 -75 0 -75 -285 0 -285 0 0 198 c0
165 -3 201 -16 220 -15 21 -15 25 0 41 13 15 16 47 16 204 l0 187 285 0 285 0
0 -77z m5920 -49 c0 -9 -5 -14 -12 -12 -18 6 -21 28 -4 28 9 0 16 -7 16 -16z
m-2769 -913 c18 -19 29 -40 29 -58 0 -15 -27 -233 -61 -483 -52 -386 -60 -471
-56 -560 8 -200 84 -319 227 -356 l45 -11 -3 -49 c-16 -260 -82 -639 -157
-897 l-15 -52 -113 -18 c-437 -69 -1039 -158 -1043 -154 -2 2 18 51 45 108
100 213 183 463 238 714 27 126 27 126 53 118 14 -4 75 -8 135 -7 96 1 122 5
205 32 52 18 118 44 145 60 l50 27 19 108 c10 60 17 110 15 112 -2 2 -27 -1
-56 -7 -99 -20 -154 10 -169 91 -4 20 0 95 10 171 9 74 37 290 61 480 25 190
45 363 45 385 1 84 74 179 187 242 76 43 124 44 164 4z m4594 -421 c10 -17 33
-331 41 -553 l7 -202 -81 -33 c-44 -19 -108 -54 -141 -78 l-61 -44 0 147 c0
157 -14 447 -30 627 -5 60 -8 111 -7 113 2 1 28 9 58 17 63 17 205 21 214 6z
m-13279 -87 c-3 -10 -10 -56 -16 -103 -7 -55 -46 -196 -111 -403 -91 -290
-292 -911 -306 -947 -12 -32 -49 262 -61 490 l-7 135 31 75 c130 307 289 587
405 713 55 58 74 70 65 40z m12514 -463 c1 -80 5 -165 8 -189 l7 -44 218 -76
c119 -42 217 -78 217 -81 0 -3 -98 -41 -217 -84 -187 -68 -231 -80 -308 -86
-99 -8 -169 -32 -249 -84 -35 -23 -109 -52 -235 -90 -102 -30 -187 -54 -189
-52 -2 2 55 91 127 196 72 106 131 193 131 195 0 2 -61 90 -134 196 -74 107
-134 194 -133 196 2 1 105 -28 231 -64 145 -42 230 -63 234 -56 4 6 68 90 142
188 l135 178 7 -49 c3 -27 7 -114 8 -194z m-1977 -185 c1 -223 -3 -415 -11
-505 -17 -194 -52 -473 -60 -482 -8 -8 -581 -122 -587 -117 -2 3 3 38 11 79
42 222 74 522 83 784 l6 190 80 31 c140 55 269 156 373 294 32 42 64 92 72
111 l14 34 9 -30 c5 -16 10 -191 10 -389z m962 113 c31 -28 70 -71 87 -96 l31
-45 -6 -233 c-4 -185 -9 -239 -22 -263 -19 -38 -111 -129 -155 -155 l-33 -19
6 30 c12 61 29 544 24 686 -2 81 -1 147 3 147 5 0 34 -23 65 -52z m-1921 -11
c10 -40 75 -105 133 -133 46 -23 70 -28 136 -28 l80 -1 -7 -190 c-9 -267 -44
-584 -89 -810 l-12 -59 -180 -33 c-312 -55 -875 -147 -879 -142 -3 2 15 83 39
179 50 206 78 361 100 566 9 82 18 167 21 189 l5 41 85 17 c101 21 170 50 256
108 80 53 224 199 263 267 17 28 33 52 36 52 4 0 9 -10 13 -23z m-10114 -552
c6 -77 22 -218 36 -313 l24 -173 -115 -357 c-63 -196 -128 -393 -144 -437 -29
-80 -29 -80 -41 -50 -21 55 -97 319 -125 435 l-28 115 178 445 c195 489 198
496 201 484 2 -5 8 -72 14 -149z m14545 -607 c292 -105 532 -193 533 -194 2
-1 -9 -101 -25 -220 l-29 -218 -34 -8 c-19 -4 -312 -30 -650 -58 -338 -28
-620 -53 -626 -55 -15 -4 -39 -134 -28 -145 5 -4 268 -142 584 -305 316 -164
576 -299 578 -300 2 -2 -109 -426 -113 -433 -1 -1 -294 11 -650 28 -356 16
-654 30 -661 30 -15 0 -60 -129 -48 -140 5 -5 245 -173 534 -375 289 -201 526
-370 528 -375 6 -17 -161 -410 -174 -410 -7 0 -228 39 -491 86 -807 145 -792
142 -802 130 -22 -28 -62 -119 -54 -126 339 -307 950 -865 957 -875 6 -8 -24
-71 -98 -199 -60 -102 -111 -188 -114 -190 -4 -2 -288 85 -632 194 -344 110
-628 196 -631 192 -3 -4 -22 -31 -43 -60 l-37 -53 124 -147 c68 -81 259 -308
425 -505 l302 -358 -136 -179 c-75 -99 -139 -178 -143 -176 -23 14 -1183 556
-1189 555 -9 -1 -92 -98 -92 -107 1 -4 160 -254 354 -557 l354 -550 -157 -158
c-86 -86 -161 -155 -168 -153 -7 3 -256 161 -554 352 -423 271 -545 344 -559
338 -10 -5 -36 -26 -59 -47 l-41 -37 279 -593 279 -592 -27 -23 c-14 -12 -94
-74 -178 -138 l-151 -116 -500 421 c-276 232 -504 421 -507 421 -3 0 -32 -18
-64 -39 l-58 -40 198 -623 c109 -343 195 -626 191 -630 -13 -12 -372 -218
-379 -217 -5 0 -204 216 -443 479 -239 264 -439 480 -443 480 -4 0 -34 -14
-67 -30 -42 -21 -60 -36 -60 -49 0 -11 50 -297 111 -636 60 -339 108 -622 106
-628 -2 -6 -93 -48 -203 -93 -151 -62 -202 -79 -211 -71 -6 7 -165 233 -353
502 -189 270 -353 504 -366 522 l-24 32 -68 -23 c-64 -22 -67 -24 -70 -58 -2
-19 8 -287 22 -594 14 -307 27 -586 28 -619 l3 -60 -195 -52 c-107 -29 -205
-54 -216 -57 -20 -5 -49 47 -319 567 -163 314 -300 575 -303 579 -6 6 -142
-18 -150 -27 -2 -2 -29 -293 -59 -647 -30 -354 -56 -644 -58 -646 -2 -3 -439
-61 -442 -58 0 0 -100 275 -221 610 -122 334 -222 609 -224 611 -2 1 -37 -1
-78 -4 l-75 -6 -56 -255 c-31 -140 -94 -425 -139 -633 l-83 -377 -226 2 -225
3 -138 629 c-76 347 -140 631 -141 632 -1 1 -36 4 -77 5 -55 2 -76 -1 -82 -12
-4 -8 -103 -277 -219 -599 -116 -322 -215 -589 -219 -594 -11 -11 -441 45
-445 59 -1 5 -26 291 -54 635 -29 344 -54 630 -56 636 -4 14 -144 39 -156 27
-5 -5 -140 -260 -299 -568 -160 -307 -292 -560 -294 -562 -2 -2 -101 22 -220
54 l-217 58 6 80 c16 232 55 1199 48 1205 -8 8 -131 50 -144 50 -4 0 -172
-236 -374 -524 l-367 -524 -121 50 c-67 28 -158 66 -202 84 -55 22 -81 38 -83
50 -1 11 47 295 108 633 60 338 108 616 107 617 -1 1 -34 18 -74 38 l-72 36
-44 -48 c-25 -26 -219 -238 -432 -472 -213 -234 -390 -424 -394 -423 -8 2
-373 212 -379 218 -3 3 356 1141 377 1199 9 22 4 28 -60 70 l-70 47 -92 -77
c-51 -42 -269 -226 -485 -408 -217 -182 -397 -331 -402 -331 -14 0 -350 259
-350 269 0 8 207 453 479 1029 l59 126 -63 56 -64 56 -538 -345 -538 -344
-158 156 c-97 98 -155 162 -152 171 3 7 156 249 340 537 184 287 335 526 335
531 -1 4 -24 34 -53 67 l-53 58 -579 -271 c-318 -149 -579 -270 -580 -269 -1
2 -61 81 -133 175 -73 95 -132 175 -132 178 0 3 184 224 409 492 l409 485 -46
67 c-25 36 -47 68 -48 70 -2 2 -276 -83 -610 -189 -333 -105 -607 -190 -608
-188 -18 24 -209 363 -212 376 -2 12 126 134 424 405 235 213 444 404 465 423
l39 36 -87 186 c-75 160 -86 191 -82 224 11 78 95 147 180 148 l38 0 52 -112
c28 -62 89 -189 134 -281 70 -141 83 -176 83 -217 0 -55 17 -77 22 -28 3 29
13 15 102 -142 348 -614 785 -1204 1254 -1693 46 -49 88 -85 93 -80 4 4 51
100 104 213 81 172 95 208 85 223 -6 11 -10 20 -8 21 30 17 133 54 201 72 103
28 142 47 217 103 35 26 60 39 70 35 8 -4 115 -25 238 -48 122 -22 222 -43
222 -46 0 -3 -90 -54 -200 -113 -110 -60 -202 -112 -205 -117 -3 -5 8 -105 25
-222 16 -117 30 -221 30 -232 0 -12 -45 24 -141 115 -78 74 -157 147 -176 163
l-34 28 -215 -103 c-118 -57 -214 -107 -214 -110 0 -9 335 -326 474 -448 368
-324 852 -676 1270 -926 1553 -925 3345 -1335 5156 -1180 1686 145 3283 783
4613 1842 1811 1443 2963 3542 3201 5837 8 76 16 139 18 140 33 18 124 50 158
56 25 4 61 15 80 23 33 13 40 12 130 -20 52 -19 334 -120 625 -225z m-14855
-670 c28 -86 50 -161 50 -167 0 -6 -38 -120 -84 -253 -46 -134 -100 -304 -120
-378 -20 -74 -40 -148 -45 -165 -8 -29 -11 -24 -65 89 -31 65 -88 197 -126
293 l-70 173 104 253 c57 138 129 313 161 387 31 74 62 146 67 160 9 22 15 9
44 -105 19 -71 57 -200 84 -287z m1023 264 c76 -236 230 -578 362 -807 125
-217 294 -460 445 -640 45 -53 80 -98 78 -100 -2 -2 -50 -24 -107 -50 -57 -25
-149 -69 -204 -97 l-101 -50 -29 33 c-45 53 -201 260 -231 306 -26 39 -27 44
-16 100 l11 58 -78 72 c-51 46 -79 67 -81 57 -2 -8 -7 -14 -10 -14 -12 0 -135
224 -223 402 l-82 168 71 197 c38 109 89 255 113 325 24 71 46 128 49 128 3 0
18 -39 33 -88z m7298 -127 c-154 -289 -370 -574 -621 -823 l-129 -129 197 48
c211 52 1036 247 1265 299 76 18 141 30 143 27 3 -3 -25 -56 -62 -118 -610
-1031 -1596 -1770 -2747 -2059 -358 -90 -690 -130 -1082 -130 -674 0 -1254
127 -1882 411 -47 21 -67 39 -45 39 5 0 73 35 153 77 273 145 687 333 1059
480 91 36 166 66 167 67 2 1 -55 12 -125 25 -448 77 -910 258 -1297 509 -145
94 -328 233 -318 242 8 9 503 152 824 239 1116 302 2380 558 4019 815 503 79
525 82 529 80 2 -2 -20 -46 -48 -99z m3985 8 c-16 -93 -110 -455 -160 -618
-124 -407 -262 -747 -461 -1140 -994 -1964 -2831 -3364 -4984 -3800 -919 -186
-1895 -189 -2816 -9 -1247 245 -2395 812 -3368 1663 l-98 86 29 12 c22 9 41 8
87 -3 33 -7 84 -14 113 -14 53 0 54 -1 185 -109 1480 -1218 3403 -1771 5322
-1530 1417 177 2730 780 3805 1745 169 151 478 468 625 639 717 836 1217 1801
1485 2869 l48 190 60 12 c33 7 73 19 89 28 41 22 46 20 39 -21z m-10136 -78
c18 -33 76 -124 128 -203 52 -79 92 -146 88 -149 -11 -11 -135 15 -181 38
-116 58 -195 194 -195 338 0 37 1 38 53 52 60 17 53 22 107 -76z m10997 -259
l-54 -228 37 -26 c20 -15 108 -74 193 -132 86 -58 157 -108 157 -111 0 -3
-105 -14 -234 -24 l-234 -18 -47 -161 c-25 -89 -55 -192 -66 -229 -11 -38 -22
-67 -24 -65 -2 2 -44 100 -94 218 l-90 215 -123 -3 c-68 -1 -177 -5 -243 -8
-99 -4 -117 -3 -104 8 91 75 349 303 349 307 0 6 -135 383 -155 434 -5 12 71
-29 199 -107 l208 -126 186 144 c102 80 188 144 189 142 2 -2 -21 -105 -50
-230z m-12189 -644 c34 -57 62 -109 62 -115 0 -20 -57 -134 -92 -185 -18 -26
-52 -68 -77 -95 -50 -53 -160 -125 -170 -110 -38 56 -164 258 -172 276 -9 20
-5 49 26 157 28 103 140 449 170 528 3 8 47 -69 98 -170 51 -100 121 -230 155
-286z m-458 -310 c0 -5 29 -54 64 -110 68 -107 68 -115 -5 -85 -32 12 -46 26
-60 57 -20 43 -26 146 -9 146 6 0 10 -4 10 -8z m725 -98 c26 -37 83 -110 125
-164 l78 -97 -72 -38 c-77 -42 -318 -180 -352 -201 -18 -13 -23 -10 -58 36
l-38 49 40 48 c53 63 120 178 165 284 20 47 37 89 37 92 0 11 19 57 24 57 2 0
25 -30 51 -66z m-2056 -599 c128 -227 314 -510 487 -739 l82 -109 -44 -59
c-23 -32 -46 -68 -49 -78 -4 -11 -11 -17 -17 -14 -18 11 -248 325 -348 474
-98 147 -236 371 -302 490 l-37 66 42 26 c23 15 55 41 71 57 17 17 33 28 36
24 4 -5 39 -66 79 -138z m1763 54 c-4 -3 -65 -44 -137 -92 -71 -47 -173 -117
-225 -155 l-95 -69 -52 66 c-29 36 -52 69 -53 74 0 4 10 7 23 7 41 0 167 40
236 75 64 32 199 131 230 168 12 15 16 13 47 -25 18 -24 30 -45 26 -49z
m11161 -359 c4 0 103 40 219 90 116 49 213 89 214 87 1 -1 -47 -94 -107 -205
-60 -112 -109 -208 -109 -213 0 -8 176 -217 283 -336 11 -13 19 -25 16 -26 -2
-2 -107 15 -234 38 -126 24 -230 42 -231 41 0 0 -57 -93 -125 -206 l-124 -205
-27 205 c-15 113 -31 220 -35 239 l-8 35 -223 52 c-123 29 -226 54 -228 57 -2
2 90 49 206 105 203 99 210 103 210 131 0 33 -27 366 -34 421 -5 33 6 24 162
-138 92 -95 171 -172 175 -172z m-13513 3 c0 -13 56 -44 215 -118 118 -55 209
-103 202 -106 -7 -3 -110 -30 -230 -59 -193 -46 -218 -54 -222 -73 -2 -12 -16
-116 -30 -232 -14 -115 -28 -211 -30 -213 -2 -2 -14 13 -27 35 -14 21 -68 109
-122 195 -53 87 -100 159 -104 161 -4 2 -108 -16 -232 -39 -123 -24 -226 -42
-228 -40 -2 3 64 85 148 183 175 207 202 226 334 237 44 4 105 16 135 28 56
20 169 56 184 57 4 1 7 -7 7 -16z m12247 -1555 c43 -78 59 -98 76 -98 12 0
116 14 232 30 115 16 211 27 213 25 3 -2 -68 -81 -156 -174 l-161 -169 48
-104 c27 -57 74 -154 105 -215 31 -62 54 -113 51 -113 -3 0 -101 45 -217 100
l-212 100 -51 -47 c-27 -26 -105 -102 -172 -168 -88 -85 -123 -114 -123 -100
1 11 13 118 29 239 l28 218 -28 17 c-14 9 -108 59 -208 111 -99 52 -180 97
-181 100 0 3 96 23 213 44 116 22 221 43 233 47 18 6 25 32 58 221 21 117 40
221 43 232 4 13 22 -11 65 -90 34 -60 85 -153 115 -206z m-9582 -1068 c54
-113 99 -206 100 -208 2 -3 287 20 425 33 l55 6 -173 -168 -173 -168 91 -214
c50 -118 88 -216 86 -218 -2 -2 -96 46 -210 107 l-205 110 -178 -154 c-98 -85
-179 -151 -181 -147 -2 5 16 109 38 231 33 182 39 225 28 235 -7 7 -98 63
-203 125 -165 99 -186 115 -165 121 14 4 119 19 233 35 190 24 209 29 216 48
5 12 30 116 57 233 27 117 52 209 55 205 3 -4 50 -99 104 -212z m7995 -100
c28 -113 54 -208 58 -212 4 -4 109 -19 235 -34 125 -16 227 -31 227 -34 0 -3
-90 -61 -200 -129 -152 -93 -200 -127 -196 -140 6 -19 86 -435 86 -445 0 -8
-3 -6 -217 175 l-149 127 -205 -114 c-112 -62 -207 -114 -210 -114 -4 0 34 97
82 215 49 118 89 219 89 223 0 5 -77 79 -170 166 -94 87 -169 160 -167 163 2
2 91 -3 198 -12 107 -8 212 -15 234 -15 l41 0 99 211 c76 162 101 207 107 193
4 -11 30 -111 58 -224z m-6229 -697 c79 -92 149 -173 154 -180 8 -11 54 3 230
67 121 44 223 80 227 80 3 0 -50 -92 -118 -204 l-125 -204 146 -187 c81 -103
145 -188 143 -189 -2 -2 -106 21 -232 51 -125 30 -230 53 -231 51 -10 -11
-248 -365 -252 -375 -14 -35 -21 6 -39 223 l-19 237 -227 66 c-125 36 -224 68
-220 72 4 4 97 44 207 90 110 45 206 87 212 92 9 6 11 31 8 81 -7 111 -15 396
-12 396 2 0 69 -75 148 -167z m4427 -110 l-3 -237 212 -86 c117 -48 215 -89
218 -91 3 -3 -91 -34 -208 -69 -116 -34 -219 -66 -228 -71 -13 -7 -18 -43 -29
-201 -7 -106 -15 -212 -19 -234 l-6 -42 -135 194 c-74 107 -137 194 -140 194
-3 0 -105 -25 -228 -55 -123 -30 -226 -55 -228 -55 -3 0 60 86 140 190 l144
191 -124 199 c-68 109 -124 201 -124 204 0 3 19 -2 43 -10 23 -9 124 -44 224
-79 l182 -64 151 180 c83 98 153 179 156 179 3 0 4 -107 2 -237z m-2339 -325
l54 -38 46 33 c125 89 339 237 344 237 2 0 -24 -99 -60 -221 -35 -122 -62
-227 -60 -233 3 -7 88 -75 188 -152 l184 -139 -55 -3 c-30 -2 -138 -6 -239
-10 l-184 -7 -73 -210 c-41 -115 -74 -216 -74 -222 0 -41 -24 11 -95 210 l-80
222 -238 3 c-130 1 -237 6 -236 10 0 4 83 70 184 147 101 77 184 145 184 150
1 6 -28 106 -64 224 -36 117 -65 217 -65 222 0 8 143 -87 339 -223z"/>
<path d="M7711 16349 c-151 -92 -278 -172 -283 -177 -6 -6 104 -195 282 -488
l292 -478 -7 -91 -7 -91 84 -32 83 -32 173 -286 173 -285 -31 -67 c-28 -61
-37 -71 -98 -107 -65 -39 -69 -41 -142 -37 l-75 4 -110 180 c-61 100 -113 181
-116 182 -4 1 -135 -77 -292 -173 l-285 -174 111 -181 c61 -100 132 -217 159
-262 l49 -81 127 -6 c70 -4 228 -9 352 -12 l225 -5 255 157 255 158 142 305
c78 168 142 310 143 315 0 6 -99 172 -220 370 -210 342 -221 362 -216 400 3
22 8 63 12 90 l6 50 -82 29 c-97 34 -49 -33 -415 569 -143 235 -262 426 -265
426 -3 -1 -128 -77 -279 -170z"/>
<path d="M7450 15078 c-189 -153 -540 -471 -540 -490 0 -3 12 -9 26 -12 23 -6
39 6 143 106 137 134 243 228 383 339 57 45 106 87 109 93 11 20 19 66 12 66
-5 -1 -64 -46 -133 -102z"/>
<path d="M13178 11591 c-72 -28 -112 -56 -170 -120 -115 -124 -191 -325 -267
-706 -71 -353 -58 -567 38 -648 87 -73 263 8 394 183 38 49 45 68 51 122 11
94 135 1077 142 1119 5 34 3 37 -29 53 -45 21 -100 20 -159 -3z"/>
<path d="M14790 6029 c-79 -70 -391 -302 -525 -391 -409 -268 -846 -490 -1270
-643 -87 -32 -104 -46 -87 -73 7 -10 37 -2 133 34 629 236 1208 568 1737 997
67 54 125 103 128 108 3 5 -12 9 -33 9 -30 -1 -48 -9 -83 -41z"/>
<path d="M10028 13906 c-14 -11 -18 -29 -18 -90 l0 -76 65 0 65 0 0 76 c0 86
-11 103 -65 103 -16 0 -38 -6 -47 -13z"/>
<path d="M11580 13650 l0 -270 46 0 c88 0 84 -13 84 270 0 283 4 270 -84 270
l-46 0 0 -270z"/>
<path d="M12870 8145 c-633 -162 -1256 -343 -1770 -514 -306 -102 -709 -247
-723 -261 -19 -17 393 -42 568 -35 449 20 845 105 1235 265 299 123 613 309
858 509 52 42 104 84 116 93 11 10 17 17 11 17 -5 0 -138 -33 -295 -74z"/>
</g>
</svg>
